<?xml version="1.0"?><svg width="1000" height="290" xmlns="http://www.w3.org/2000/svg" xmlns:xlink="http://www.w3.org/1999/xlink">
 <title>Strand clipart</title>
 <defs>
  <filter id="filter3036">
   <feGaussianBlur id="feGaussianBlur3038" stdDeviation="1.595601"/>
  </filter>
  <linearGradient id="linearGradient4874">
   <stop offset="0" id="stop4876" stop-color="#fffffe"/>
   <stop offset="1" id="stop4878" stop-opacity="0" stop-color="#fffffe"/>
  </linearGradient>
  <linearGradient y2="-0.000001" x2="0.610574" y1="1.007621" x1="0.492378" id="linearGradient3044" xlink:href="#linearGradient2998"/>
  <linearGradient id="linearGradient2998">
   <stop id="stop3000" offset="0" stop-color="#be894f"/>
   <stop id="stop3002" offset="1" stop-color="#553b1f"/>
  </linearGradient>
  <linearGradient id="linearGradient3049">
   <stop id="stop3051" offset="0" stop-color="#638225"/>
   <stop id="stop3053" offset="1" stop-color="#bad681"/>
  </linearGradient>
  <linearGradient xlink:href="#linearGradient3049" id="linearGradient4577" x1="0.023196" y1="0.425951" x2="0.998801" y2="0.570156"/>
  <linearGradient xlink:href="#linearGradient3049" id="linearGradient4584" x1="0.267265" y1="0.097859" x2="0.760271" y2="0.857662"/>
  <linearGradient xlink:href="#linearGradient3049" id="linearGradient4588" x1="0.08643" y1="0.314715" x2="0.954716" y2="0.667358"/>
  <linearGradient xlink:href="#linearGradient2998" id="linearGradient4732" x1="0.492378" y1="1.007621" x2="0.610574" y2="-0.000001"/>
  <linearGradient xlink:href="#linearGradient3049" id="linearGradient4734" x1="0.0627" y1="0.359454" x2="0.974214" y2="0.629007"/>
  <linearGradient xlink:href="#linearGradient3049" id="linearGradient4736" x1="0.237266" y1="0.134023" x2="0.795366" y2="0.823612"/>
  <linearGradient xlink:href="#linearGradient3049" id="linearGradient4738" x1="0.009146" y1="0.470349" x2="1.002585" y2="0.528867"/>
  <linearGradient xlink:href="#linearGradient4874" id="linearGradient4880" x1="0.469331" y1="1.656261" x2="0.469331" y2="0.311395"/>
 </defs>
 <metadata id="metadata7">image/svg+xml</metadata>
 <g>
  <title>Layer 1</title>
  <g id="layer1">
   <path d="m1.05255,44.583351l0,175.656242l66.437501,0c18.260887,4.31694 40.183151,6.84375 63.75,6.84375c21.585144,0 41.785126,-2.1091 59.0625,-5.78125c20.923355,10.350082 55.071167,17.09375 93.65625,17.09375c39.869812,0 75.045349,-7.217499 95.75,-18.15625l4.15625,0c22.959137,7.3797 53.401794,11.875 86.78125,11.875c33.378845,0 63.822266,-4.49556 86.78125,-11.875l59.5,0c21.13623,9.346573 53.556885,15.34375 89.90625,15.34375c34.71106,0 65.801086,-5.493698 86.9375,-14.125c19.419189,5.28949 43.686584,8.46875 70.03125,8.46875c28.372681,0 54.35083,-3.641876 74.4375,-9.6875l61.78125,0l0,-175.656242l-998.968751,0z" id="rect4360" stroke-dashoffset="0" stroke-miterlimit="4" fill="#729fcf"/>
   <rect id="rect4864" width="997.67841" height="148.56316" x="1.000015" y="43.107612" stroke-opacity="0.984" stroke-dashoffset="0" stroke-miterlimit="4" stroke-width="5" fill="url(#linearGradient4880)"/>
   <path d="m334.046814,236.49028c-0.046753,0.004013 -0.114532,0.024643 -0.20636,0.062088c-1.682983,0.686142 -4.256012,2.140976 -7.11972,3.921753c1.442474,-1.296707 2.44162,-2.34581 2.694489,-2.937439c0.070038,-0.163895 -0.255096,-0.053741 -0.811096,0.23671c-0.026703,-0.039642 -0.116119,-0.027695 -0.27832,0.045258c-0.947815,0.426407 -2.17041,1.126984 -3.553314,2.004868c0.050934,-0.130737 0.079529,-0.246216 0.084229,-0.34407c0.010895,-0.226288 -0.820953,0.238983 -1.902191,1.012787c0.560577,-0.672562 0.925476,-1.216232 1.025452,-1.579315c0.123169,-0.447327 -2.47049,1.218887 -4.612823,3.034454c0.209045,-0.423889 0.313873,-0.764282 0.28656,-0.999847c-0.041107,-0.354309 -1.988495,1.085114 -3.629425,2.71109c-0.16626,-0.060364 -0.56958,0.20787 -1.045349,0.65448c0.031891,-0.299057 -0.001007,-0.535873 -0.111084,-0.697159c-0.049438,-0.072449 -0.192474,-0.031982 -0.397949,0.093124c0.15097,-0.397949 0.136353,-0.620132 -0.100769,-0.514801c-0.382385,0.169846 -0.822327,0.454971 -1.301208,0.829102c0.648132,-1.291718 0.842346,-2.44812 0.393707,-2.175583c-0.286377,0.173965 -0.593872,0.425018 -0.916687,0.738556c0.369812,-1.30867 0.305847,-2.422043 -0.091064,-2.101868c-0.466949,0.376709 -0.950012,1.012207 -1.426239,1.808258c0.001434,-0.01268 0.00415,-0.026093 0.005524,-0.038803c0.183502,-1.687027 -0.480682,-3.410461 -0.848358,-2.929688c-0.526337,0.688263 -0.866364,1.940277 -1.063171,3.413437c-0.356354,-0.938919 -0.775879,-1.663422 -1.253479,-2.007446c-0.364716,-0.262695 -0.698181,1.118713 -0.521423,2.495071c-0.08902,-0.087067 -0.178253,-0.166443 -0.266815,-0.239288c-0.146179,-0.471909 -0.363007,-0.720963 -0.587646,-0.565231c-0.359711,0.249405 -0.698212,0.636337 -1.008118,1.127899c-0.264923,-1.537155 -1.012665,-2.850937 -1.370911,-2.476974c-0.228699,0.238693 -0.421814,0.564194 -0.577271,0.963623c-0.649261,-1.511642 -1.700562,-2.737778 -1.948578,-2.319168c-0.29184,0.492508 -0.381592,1.275589 -0.320313,2.235092c-0.009125,-0.014313 -0.014984,-0.029633 -0.024231,-0.043976c-1.226379,-1.902008 -3.611481,-3.71077 -3.680756,-3.118515c-0.099182,0.847809 0.542908,2.293839 1.565308,3.960556c-1.291382,-0.985596 -2.481293,-1.723541 -3.415283,-2.029434c-0.713196,-0.233582 0.049194,1.353561 1.483246,2.853363c-0.593719,-0.25235 -1.133453,-0.433105 -1.591003,-0.525146c-0.378021,-0.076035 -0.269409,0.273132 0.15741,0.811005c-1.325592,-0.54393 -2.374664,-0.834793 -2.325684,-0.59758c0.046112,0.22345 0.237671,0.502655 0.547546,0.827805c-2.439972,-0.965057 -4.961121,-1.634354 -4.723541,-1.27533c0.27951,0.422409 1.109894,1.013062 2.299377,1.700882c-0.026154,-0.008484 -0.051727,-0.01738 -0.078003,-0.025864c-3.48938,-1.12645 -8.05423,-1.936295 -7.429718,-1.48877c0.894012,0.640656 3.245026,1.558853 6.249176,2.557159c-2.479797,-0.443024 -4.562897,-0.727081 -5.87854,-0.750198c-1.004608,-0.01767 1.637482,0.97879 4.867249,1.766861c-0.904297,-0.057007 -1.665619,-0.07489 -2.242249,-0.043976c-0.808563,0.04335 1.255524,0.682739 3.999023,1.243011c0.116791,0.15744 0.391449,0.343414 0.794586,0.55101c-0.057281,0.003006 -0.114258,0.006866 -0.169159,0.010345c-2.320862,-0.409409 -4.554077,-0.622665 -4.27182,-0.411316c0.187744,0.140579 0.53006,0.299866 1.002808,0.474701c-2.65271,-0.332733 -5.173065,-0.46196 -4.737091,-0.256119c0.51297,0.242218 1.592926,0.527267 3.03183,0.831696c-0.027191,-0.00235 -0.055023,-0.005417 -0.082336,-0.007751c-3.623474,-0.309814 -7.917053,-0.281067 -7.103638,-0.064682c1.164398,0.309769 3.710724,0.622635 6.849457,0.90802c-2.335388,0.013779 -4.238007,0.084229 -5.334961,0.230225c-0.837646,0.111496 2.002441,0.438614 5.185638,0.558777c-0.781555,0.073441 -1.420288,0.156204 -1.873566,0.24704c-0.858673,0.172134 3.320129,0.415222 6.980103,0.298798c-1.121552,0.145813 -1.992157,0.295456 -2.513397,0.44754c-0.560577,0.163574 1.899445,0.235703 4.662811,0.126755c-0.870728,0.177612 -1.526855,0.348312 -1.896332,0.508331c-0.04068,0.017609 -0.056671,0.03418 -0.04895,0.047852c-1.055359,0.346298 -1.775238,0.778214 -2.195435,1.246887c-1.467468,0.275146 -2.393707,0.516144 -2.095947,0.585938c0.347534,0.081451 0.929626,0.121674 1.689697,0.128052c-0.018402,0.069778 -0.030426,0.139465 -0.037415,0.209564c-3.575836,0.637634 -6.814972,1.430298 -6.123413,1.484863c0.551392,0.043518 1.437836,0.011414 2.581085,-0.078888c-3.749939,0.826782 -7.030823,1.763397 -6.178436,1.748749c0.544098,-0.009369 1.305267,-0.074249 2.247925,-0.190125c-3.742889,0.984558 -6.854065,2.015015 -5.878204,1.931122c0.848541,-0.072968 2.096497,-0.269318 3.628204,-0.556183c-22.511414,6.428711 -46.229446,13.28421 -63.473282,17.991974c-2.281494,0.60202 -4.406143,1.176453 -6.456421,1.740997c-1.853287,0.49292 -3.611343,0.954742 -5.233994,1.371063c0.001801,0.030121 0.003387,0.056183 0.005295,0.085358c-0.038223,0.010742 -0.076385,0.021606 -0.114609,0.032318c0.294525,1.616852 0.793106,2.089111 3.473679,2.840454c0.068512,-0.021454 0.142349,-0.044464 0.211151,-0.065979c0.008331,0.002655 0.015045,0.005096 0.023407,0.007751c0.213455,-0.071991 0.435013,-0.146454 0.654388,-0.219879c3.344467,-1.045868 6.999222,-2.187744 11.064804,-3.515594c-0.026199,-0.003998 -0.051712,-0.007599 -0.077545,-0.011658c0.201859,-0.062958 0.403473,-0.126648 0.607407,-0.190125c0.021423,0.003693 0.041763,0.008026 0.0634,0.011627c1.214828,-0.389923 2.469101,-0.788239 3.75235,-1.192566c15.288361,-4.7034 35.263794,-10.561829 54.026215,-16.199249c1.196289,-0.263458 3.89325,-1.056091 6.535095,-1.971222c-0.6922,0.377808 -1.207733,0.697601 -1.494476,0.94165c-0.543976,0.462921 4.685852,-1.234558 8.476959,-2.889587c-0.898956,0.563934 -1.511505,1.022827 -1.728119,1.328369c-0.17453,0.246216 1.413116,-0.273102 3.402679,-1.078735c0.355652,-0.013916 0.818237,-0.07135 1.368988,-0.164276c-0.105713,0.141937 -0.167816,0.264618 -0.179718,0.364746c-0.002106,0.0177 0.008331,0.03006 0.025909,0.037537c-2.634766,1.092957 -4.643921,2.126892 -3.937439,2.038483c0.61618,-0.077118 1.498657,-0.277557 2.578918,-0.57431c-2.963257,1.375549 -5.324463,2.742371 -4.461456,2.561066c0.550842,-0.115753 1.265625,-0.318909 2.111053,-0.595001c-2.783478,1.493713 -4.863831,2.897095 -3.949249,2.638641c1.07608,-0.304108 2.657867,-0.923981 4.542572,-1.744873c-0.02536,0.015228 -0.050262,0.029999 -0.075592,0.045288c-3.364655,2.027954 -6.153046,4.397339 -4.953735,3.929504c1.716858,-0.669708 4.367737,-2.102844 7.33374,-3.860962c-1.523102,1.288757 -2.587799,2.33371 -2.881287,2.927094c-0.224121,0.453094 2.671936,-1.144348 5.168121,-2.912872c-0.301544,0.425415 -0.483368,0.771515 -0.512329,1.014069c-0.051666,0.432709 3.080566,-1.606995 5.199829,-3.52594c0.086548,-0.035522 0.175385,-0.075439 0.265686,-0.119019c-0.225555,0.49231 -0.307709,0.875732 -0.211914,1.113678c0.056763,0.141052 0.512726,-0.098511 1.137421,-0.549713c-0.3508,1.049194 -0.354645,1.805695 0.066528,1.585754c0.441833,-0.230743 0.9198,-0.605652 1.419067,-1.091675c-0.412476,1.616486 -0.278229,3.040192 0.215637,2.680054c0.315247,-0.229889 0.634308,-0.554688 0.950317,-0.957153c-0.043793,1.620087 0.41507,2.976166 0.82547,2.561035c0.48288,-0.488434 0.898987,-1.293732 1.253387,-2.294586c0.00238,0.015564 0.003632,0.030945 0.006104,0.04657c0.32608,2.070526 1.7659,4.134033 2.084351,3.524658c0.455902,-0.872375 0.483002,-2.421906 0.245911,-4.232178c0.779602,1.124298 1.568939,1.98407 2.307281,2.374786c0.563812,0.29834 0.538055,-1.40918 -0.153839,-3.07843c0.444489,0.308472 0.865997,0.538635 1.252472,0.669983c0.615326,0.209198 0.229248,-1.364594 -0.784576,-2.862396c0.00589,-0.00354 0.011353,-0.007324 0.016754,-0.011658c0.119843,-0.095856 0.220551,-0.218048 0.298309,-0.362152c0.37439,0.155029 0.722351,0.267059 1.038147,0.324646c0.041992,0.00766 0.077423,0.008667 0.108337,0.003876c0.715607,0.663239 1.438477,1.099152 1.569794,0.900269c0.136932,-0.207367 0.166229,-0.503174 0.107727,-0.865326c1.198181,0.9888 2.653076,1.773376 2.709381,1.483582c0.035919,-0.184967 -0.015472,-0.424438 -0.142303,-0.70752c1.498077,0.927155 3.146698,1.618164 3.083832,1.311584c-0.073975,-0.360718 -0.501678,-0.890472 -1.16394,-1.519836c0.016632,0.008453 0.03299,0.017456 0.049744,0.025879c2.221832,1.118866 5.335876,2.041046 5.015228,1.640106c-0.459015,-0.573975 -1.90564,-1.458099 -3.809601,-2.444641c1.690918,0.503387 3.138367,0.854004 4.101837,0.94812c0.735748,0.071869 -0.900513,-0.892456 -3.036743,-1.720306c0.649384,0.098236 1.205872,0.156494 1.641022,0.164276c0.824341,0.014679 -1.877319,-1.158752 -4.642334,-1.850952c0.980896,0.099762 1.788239,0.139252 2.346344,0.099609c0.600281,-0.042633 -1.076721,-0.6604 -3.189911,-1.16153c0.288422,0.004028 0.555786,0.002258 0.803864,-0.003876c1.820923,0.347565 3.492432,0.496552 3.528137,0.281952c0.057343,-0.344879 -0.534973,-0.789886 -1.554657,-1.284393c3.089966,0.645264 7.589478,0.979584 7.387207,0.667419c-0.165649,-0.255585 -0.796539,-0.551117 -1.758179,-0.870483c3.530457,0.379608 7.608276,0.462463 7.193451,0.203064c-0.294708,-0.184326 -0.909698,-0.380768 -1.773621,-0.583344c3.576691,0.136505 7.007782,0.041748 6.437408,-0.161682c-0.364075,-0.129852 -0.95166,-0.258347 -1.722015,-0.384155c3.79303,-0.022293 7.243958,-0.251663 6.497009,-0.417786c-0.878845,-0.19545 -2.542114,-0.355331 -4.700897,-0.482468c0.038025,-0.001404 0.075073,-0.002411 0.11322,-0.003876c5.062897,-0.192947 10.740143,-0.866592 9.483612,-0.988205c-1.798798,-0.174057 -5.435852,-0.145432 -9.835358,0.002594c3.088684,-0.364105 5.557037,-0.725143 6.893768,-1.052872c1.020752,-0.250259 -3.017944,-0.195358 -7.3414,0.144867c0.977386,-0.199158 1.759613,-0.38649 2.287018,-0.556183c0.838165,-0.269699 -3.070831,-0.066116 -7.163818,0.406143c-0.251129,-0.017975 -0.524841,-0.033447 -0.821625,-0.04657c3.943207,-0.393219 7.42038,-0.941818 6.552063,-1.019241c-1.021637,-0.091095 -2.846954,-0.070938 -5.166504,0.025864c0.03891,-0.00502 0.080719,-0.00914 0.11972,-0.014221c4.690338,-0.609955 9.69455,-1.628677 9.567535,-1.804367c-0.013123,-0.018188 -0.084229,-0.025803 -0.213196,-0.024582c-1.969391,0.018768 -5.745209,0.400482 -10.253174,0.967499c3.02475,-0.634384 5.404846,-1.204529 6.622314,-1.633621c0.858459,-0.302551 -2.641846,0.056122 -6.588379,0.690704c3.616089,-0.889252 6.954895,-1.983017 5.917725,-1.86647c-1.610687,0.181015 -4.536804,0.773163 -7.979187,1.557327c2.191345,-0.705353 3.882416,-1.311172 4.683411,-1.717712c0.611664,-0.310425 -2.619049,0.361679 -5.833221,1.248184c0.620697,-0.273148 1.092743,-0.50885 1.373779,-0.693283c0.439819,-0.288651 -2.458313,0.425003 -5.328247,1.333542c-0.180328,-0.019516 -0.401672,-0.024292 -0.662018,-0.015518c0.240173,-0.147446 0.423309,-0.277679 0.534515,-0.385452c0.181824,-0.176254 -0.925385,0.099762 -2.430511,0.578186c-0.232727,0.033539 -0.474365,0.070023 -0.727539,0.111237c0.038635,-0.031372 0.073486,-0.06279 0.102509,-0.091843c0.014893,-0.014908 0.020599,-0.026276 0.018036,-0.036209c3.42337,-1.109161 6.842834,-2.616562 6.070465,-2.593384c-0.677979,0.020355 -1.781647,0.218201 -3.175415,0.54454c3.385986,-1.339905 6.521851,-2.951691 5.655121,-2.832672c-0.615906,0.084579 -1.491882,0.295776 -2.559875,0.60405c2.888794,-1.40181 5.170959,-2.787018 4.313721,-2.595963c-0.547211,0.121964 -1.252197,0.332291 -2.084839,0.616974c2.698883,-1.516464 4.694794,-2.932663 3.791077,-2.66452c-1.063263,0.315506 -2.61496,0.949463 -4.456207,1.787552c0.024445,-0.015411 0.048767,-0.029785 0.073212,-0.045258c2.992584,-1.892929 5.470642,-4.06749 4.918701,-4.020065zm-12.157532,15.940552c-0.011047,0.006775 -0.020111,0.014114 -0.02948,0.020691c-0.012909,-0.002563 -0.026886,-0.005188 -0.039917,-0.007751c0.023834,-0.004456 0.045349,-0.008423 0.069397,-0.012939zm-9.368591,3.408249c0.117065,0.021027 0.240326,0.04248 0.367126,0.064697c-0.108032,0.017395 -0.187988,0.044495 -0.234253,0.08017c-0.043579,-0.052277 -0.088867,-0.10083 -0.132874,-0.144867z" id="path4744" filter="url(#filter3036)" stroke-dashoffset="0" stroke-miterlimit="4" stroke-linejoin="round" stroke-linecap="round" fill-rule="nonzero" fill="#e9b96e"/>
   <path d="m280.269592,213.246979c6.834076,1.811737 12.85907,-6.019257 19.59314,-2.674744c4.658478,1.844421 10.683624,5.840485 15.60495,2.674744" id="path4898" stroke-miterlimit="4" stroke="#fffeff" fill-rule="evenodd" fill-opacity="0.75" fill="none" opacity="0.577465"/>
   <path id="path4918" d="m203.856354,234.912933c-0.03479,-0.000504 -0.086273,0.009674 -0.156784,0.030472c-1.291992,0.381042 -3.297363,1.262863 -5.541275,2.36348c1.159958,-0.849152 1.974609,-1.548599 2.204987,-1.966095c0.063812,-0.115662 -0.184113,-0.058578 -0.615692,0.114334c-0.016739,-0.031204 -0.083542,-0.029037 -0.208572,0.012726c-0.730606,0.24408 -1.684143,0.669952 -2.769073,1.214661c0.047241,-0.092621 0.076904,-0.175659 0.087646,-0.247467c0.024811,-0.166061 -0.623123,0.115295 -1.47789,0.605652c0.463318,-0.454346 0.772751,-0.828171 0.873413,-1.088486c0.124023,-0.320724 -1.912247,0.715439 -3.626785,1.895248c0.185623,-0.297058 0.288177,-0.540283 0.285522,-0.716019c-0.003998,-0.264328 -1.546875,0.652573 -2.877625,1.729782c-0.118118,-0.056854 -0.43544,0.111008 -0.819427,0.405045c0.045715,-0.21817 0.039047,-0.395248 -0.030167,-0.522354c-0.031082,-0.057098 -0.139557,-0.037872 -0.300369,0.039139c0.140869,-0.282257 0.146591,-0.447174 -0.036087,-0.3871c-0.294586,0.096863 -0.640167,0.274475 -1.021072,0.514816c0.573807,-0.904434 0.802872,-1.742767 0.451797,-1.575089c-0.224075,0.107025 -0.469467,0.269348 -0.730789,0.476578c0.369858,-0.937576 0.405304,-1.763336 0.088867,-1.556702c-0.372314,0.243134 -0.775681,0.675903 -1.185959,1.22757c0.001999,-0.009247 0.005005,-0.018936 0.006958,-0.028198c0.260544,-1.230423 -0.101318,-2.550598 -0.408142,-2.223358c-0.439209,0.46846 -0.782883,1.36647 -1.037338,2.438202c-0.193085,-0.718842 -0.448685,-1.284225 -0.775345,-1.573364c-0.249435,-0.220795 -0.59787,0.773132 -0.569687,1.801193c-0.059189,-0.070816 -0.11911,-0.135971 -0.179001,-0.196259c-0.072784,-0.358841 -0.214188,-0.558594 -0.391373,-0.460419c-0.283768,0.157211 -0.562119,0.417404 -0.827133,0.756882c-0.081253,-1.153168 -0.535141,-2.177475 -0.827072,-1.928299c-0.186356,0.159042 -0.352921,0.384735 -0.497208,0.66774c-0.366562,-1.162903 -1.050797,-2.145096 -1.264771,-1.854813c-0.25177,0.341522 -0.376068,0.912308 -0.402115,1.624405c-0.005661,-0.01123 -0.008835,-0.022964 -0.014587,-0.034225c-0.763168,-1.493591 -2.387711,-3.004425 -2.482773,-2.572845c-0.136063,0.617828 0.230103,1.731812 0.860306,3.036758c-0.87912,-0.822647 -1.701797,-1.455139 -2.367828,-1.750031c-0.508591,-0.225189 -0.064194,1.001785 0.881973,2.214203c-0.419083,-0.230164 -0.80368,-0.403503 -1.134262,-0.505341c-0.273102,-0.084137 -0.218933,0.181396 0.055893,0.609726c-0.937134,-0.499496 -1.689148,-0.791855 -1.670654,-0.613297c0.017441,0.168198 0.13797,0.388306 0.342331,0.651077c-1.727631,-0.892761 -3.537064,-1.573425 -3.388535,-1.291061c0.174759,0.332245 0.743256,0.829437 1.569351,1.424942c-0.018661,-0.008209 -0.03685,-0.016663 -0.055618,-0.024872c-2.489502,-1.089645 -5.795563,-2.025681 -5.368256,-1.649307c0.61171,0.538788 2.277206,1.390381 4.418427,2.349533c-1.795761,-0.510757 -3.310776,-0.874847 -4.279236,-0.989548c-0.739517,-0.087585 1.134857,0.843323 3.458023,1.664185c-0.662613,-0.109161 -1.222672,-0.178864 -1.650192,-0.198868c-0.599457,-0.028046 0.875168,0.596664 2.856674,1.21344c0.074417,0.124771 0.263153,0.282288 0.545029,0.465302c-0.04245,-0.002029 -0.084763,-0.003418 -0.125504,-0.004929c-1.681046,-0.474167 -3.312012,-0.79718 -3.119568,-0.620392c0.128006,0.117599 0.368622,0.260468 0.704254,0.424484c-1.931442,-0.442245 -3.780411,-0.724625 -3.474182,-0.540451c0.360291,0.216675 1.135498,0.507034 2.173981,0.838333c-0.019882,-0.003754 -0.040176,-0.008087 -0.060135,-0.011841c-2.649017,-0.497406 -5.817291,-0.794891 -5.233536,-0.574966c0.835663,0.314865 2.69014,0.734573 4.98349,1.177994c-1.72316,-0.163193 -3.131424,-0.252457 -3.951157,-0.226227c-0.625961,0.02005 1.444077,0.472076 3.782486,0.796951c-0.581787,-0.003845 -1.058945,0.009766 -1.399933,0.043121c-0.645981,0.063187 2.41748,0.552612 5.125046,0.738434c-0.837875,0.024277 -1.490982,0.069992 -1.886627,0.143448c-0.425522,0.079025 1.383163,0.314804 3.428986,0.439575c-0.655243,0.066345 -1.151764,0.143524 -1.436096,0.2341c-0.031296,0.009964 -0.044327,0.020996 -0.039642,0.031647c-0.80394,0.177032 -1.366867,0.442108 -1.711502,0.756516c-1.102554,0.093979 -1.803467,0.202942 -1.589081,0.27652c0.250244,0.085861 0.676514,0.158722 1.236511,0.219833c-0.018738,0.050079 -0.032791,0.100571 -0.043137,0.151749c-2.684189,0.204803 -5.131622,0.548889 -4.625702,0.640457c0.403366,0.073013 1.059433,0.115143 1.909195,0.133408c-2.826645,0.331329 -5.315521,0.778488 -4.685883,0.830948c0.401932,0.033493 0.968033,0.04213 1.671768,0.026642c-2.83313,0.448212 -5.203827,0.977173 -4.478012,0.987732c0.631149,0.009186 1.565979,-0.042984 2.716782,-0.140839c-17.077393,3.069702 -35.076233,6.364563 -48.141502,8.556198c-1.727081,0.274567 -3.336472,0.540497 -4.890282,0.804596c-1.403206,0.225922 -2.73391,0.435974 -3.961365,0.622528c-0.000916,0.022369 -0.001686,0.041687 -0.002441,0.063354c-0.028969,0.005066 -0.05793,0.010254 -0.086899,0.01532c0.097168,1.214142 0.429779,1.599426 2.3507,2.352417c0.052109,-0.010712 0.108269,-0.022217 0.160599,-0.032959c0.005936,0.002563 0.010712,0.004883 0.016685,0.007446c0.16275,-0.037231 0.33165,-0.075714 0.498871,-0.113586c2.543884,-0.52298 5.323715,-1.09375 8.42028,-1.771149c-0.019028,-0.004883 -0.037567,-0.00943 -0.05632,-0.014343c0.153519,-0.031464 0.306931,-0.063446 0.462029,-0.095123c0.015511,0.004303 0.030205,0.009003 0.045883,0.013275c0.924774,-0.197357 1.87925,-0.39798 2.855537,-0.600891c11.622963,-2.333557 26.787941,-5.170959 41.042046,-7.93541c0.901733,-0.105484 2.949341,-0.489792 4.965393,-0.968536c-0.538483,0.227219 -0.942398,0.424789 -1.171951,0.58345c-0.435501,0.300995 3.547058,-0.562546 6.4655,-1.501617c-0.704758,0.349136 -1.190521,0.642075 -1.372925,0.851303c-0.146973,0.168594 1.062302,-0.096512 2.589249,-0.542908c0.263275,0.016129 0.608673,0.008102 1.021698,-0.019531c-0.088486,0.096817 -0.143387,0.182678 -0.159592,0.25563c-0.002884,0.012909 0.003891,0.022781 0.016327,0.029587c-2.024063,0.610397 -3.582382,1.223724 -3.05484,1.210953c0.460098,-0.011139 1.125732,-0.09343 1.944351,-0.232071c-2.287247,0.794388 -4.129868,1.627045 -3.480042,1.557388c0.41481,-0.044464 0.956985,-0.14122 1.600891,-0.282059c-2.163437,0.894882 -3.801697,1.775345 -3.108078,1.652649c0.816086,-0.144379 2.028534,-0.484085 3.479263,-0.949524c-0.019821,0.009338 -0.039291,0.018387 -0.059113,0.027771c-2.631653,1.245697 -4.863724,2.785934 -3.944611,2.529984c1.31575,-0.366409 3.376923,-1.226456 5.69458,-2.30278c-1.218811,0.837311 -2.081497,1.528839 -2.341965,1.944611c-0.198898,0.317505 2.055252,-0.645523 4.027252,-1.764374c-0.253952,0.291306 -0.413696,0.533035 -0.453079,0.709763c-0.070206,0.315231 2.39093,-0.956375 4.096146,-2.214127c0.066467,-0.01976 0.134918,-0.042603 0.204758,-0.068024c-0.202866,0.346283 -0.291901,0.622925 -0.238937,0.805496c0.031403,0.108231 0.385422,-0.034576 0.879562,-0.320953c-0.336578,0.74765 -0.395554,1.305237 -0.068649,1.174316c0.342941,-0.13736 0.723221,-0.378357 1.127472,-0.699692c-0.424149,1.161392 -0.430847,2.221222 -0.039917,1.99231c0.249527,-0.146133 0.508926,-0.361938 0.771835,-0.635284c-0.152557,1.191437 0.085159,2.225479 0.41861,1.949814c0.392334,-0.324326 0.758957,-0.887283 1.094589,-1.59903c0.00058,0.011658 0.000381,0.023102 0.001038,0.03479c0.086777,1.551041 0.995331,3.179565 1.275406,2.753845c0.40094,-0.609436 0.53595,-1.750076 0.495483,-3.102615c0.491409,0.886932 1.009689,1.579544 1.525131,1.922455c0.393616,0.261856 0.501389,-0.999191 0.115051,-2.281479c0.304886,0.260468 0.598618,0.461472 0.873871,0.587036c0.438217,0.199921 0.27034,-0.989273 -0.366089,-2.169022c0.004593,-0.002167 0.008896,-0.004547 0.013199,-0.007339c0.095505,-0.061798 0.178833,-0.144424 0.246857,-0.244919c0.264587,0.142105 0.512863,0.250549 0.741455,0.316452c0.030396,0.008759 0.056442,0.012131 0.07962,0.01091c0.478439,0.542191 0.979141,0.917297 1.090759,0.780365c0.116364,-0.142746 0.159927,-0.358688 0.143661,-0.630096c0.810165,0.818085 1.824799,1.504639 1.887802,1.29512c0.040237,-0.133743 0.020096,-0.314133 -0.052414,-0.532288c1.035904,0.794876 2.200317,1.426804 2.176712,1.19606c-0.027786,-0.271484 -0.303848,-0.693878 -0.745499,-1.207123c0.011627,0.007446 0.023041,0.015305 0.03476,0.022766c1.555374,0.989975 3.783264,1.901138 3.576569,1.58168c-0.295898,-0.457321 -1.297028,-1.216675 -2.627808,-2.085464c1.209549,0.496704 2.250885,0.862686 2.954391,1.003601c0.537201,0.107605 -0.597824,-0.72493 -2.111649,-1.493973c0.471558,0.120651 0.877594,0.204926 1.197906,0.24295c0.606796,0.072006 -1.298355,-0.993835 -3.285934,-1.709488c0.715912,0.146378 1.308334,0.235397 1.722839,0.247604c0.445831,0.013107 -0.74498,-0.566895 -2.266068,-1.093292c0.212387,0.024384 0.409668,0.042908 0.593063,0.056793c1.316986,0.391464 2.538498,0.625412 2.580765,0.469818c0.067871,-0.250076 -0.335861,-0.622192 -1.051117,-1.062531c2.230728,0.705185 5.523911,1.285675 5.397919,1.040482c-0.10318,-0.200775 -0.546478,-0.46553 -1.231918,-0.772415c2.575241,0.541962 5.576126,0.905762 5.28949,0.683685c-0.203644,-0.157806 -0.642563,-0.348328 -1.264603,-0.561813c2.62738,0.366135 5.164551,0.550934 4.759033,0.358582c-0.25882,-0.122772 -0.682571,-0.261139 -1.241318,-0.411087c2.798691,0.265091 5.360489,0.352097 4.821991,0.174149c-0.633545,-0.209351 -1.848206,-0.450714 -3.430695,-0.704681c0.028152,0.00177 0.055542,0.003769 0.083771,0.005539c3.747787,0.233505 7.984268,0.158142 7.066711,-0.024796c-1.313553,-0.261871 -3.997711,-0.510727 -7.252914,-0.728119c2.304642,-0.039246 4.151642,-0.122269 5.161682,-0.264709c0.771301,-0.10878 -2.210968,-0.368057 -5.424408,-0.438095c0.735519,-0.07431 1.326279,-0.154388 1.727798,-0.240387c0.638092,-0.136658 -2.259598,-0.276688 -5.312851,-0.232239c-0.183868,-0.031891 -0.384567,-0.063614 -0.602448,-0.095322c2.936996,0.002731 5.541809,-0.143723 4.907242,-0.265274c-0.746613,-0.143005 -2.094101,-0.263626 -3.811752,-0.36441c0.029068,-0.000824 0.060211,-0.000748 0.08934,-0.001602c3.503983,-0.101654 7.26976,-0.481415 7.189148,-0.620407c-0.008331,-0.014389 -0.060181,-0.025284 -0.15538,-0.033951c-1.453659,-0.132339 -4.266327,-0.131134 -7.632629,-0.047592c2.277542,-0.243301 4.074982,-0.487076 5.004623,-0.71312c0.655487,-0.159393 -1.952301,-0.154709 -4.909622,0.020309c2.732529,-0.387344 5.275803,-0.946075 4.502319,-0.937103c-1.201157,0.013916 -3.402863,0.233383 -5.999527,0.556122c1.668289,-0.357483 2.960266,-0.678696 3.581116,-0.919022c0.474091,-0.183533 -1.95816,0.072296 -4.39415,0.487442c0.477982,-0.15535 0.843552,-0.294128 1.064499,-0.409271c0.345764,-0.180191 -1.84433,0.130936 -4.028107,0.587891c-0.131531,-0.027771 -0.294388,-0.047729 -0.48703,-0.060577c0.188049,-0.090912 0.332779,-0.173355 0.42276,-0.244568c0.147186,-0.11647 -0.689774,0.004868 -1.83519,0.245941c-0.174103,0.007462 -0.355011,0.016434 -0.544739,0.028046c0.030807,-0.020264 0.058838,-0.040863 0.082367,-0.06012c0.012131,-0.009888 0.017151,-0.017853 0.016022,-0.025375c2.60675,-0.563797 5.240189,-1.42157 4.66893,-1.461807c-0.50148,-0.035309 -1.330002,0.028656 -2.382019,0.165863c2.596329,-0.73674 5.028397,-1.69252 4.380417,-1.669098c-0.460449,0.016663 -1.12207,0.107376 -1.93251,0.255432c2.234283,-0.81929 4.019974,-1.671371 3.373642,-1.594116c-0.412552,0.049316 -0.948029,0.152084 -1.58316,0.300217c2.102768,-0.917938 3.679672,-1.814102 2.993362,-1.683456c-0.80748,0.153732 -1.998764,0.506058 -3.418762,0.987411c0.01918,-0.009567 0.038193,-0.018356 0.057373,-0.027954c2.347275,-1.173737 4.336029,-2.593338 3.925507,-2.59935zm-10.1483,10.852371c-0.008667,0.004166 -0.015884,0.008911 -0.0233,0.013062c-0.009323,-0.002853 -0.019424,-0.005814 -0.028839,-0.008682c0.017899,-0.001526 0.034058,-0.002838 0.052139,-0.004379zm-7.161499,1.817902c0.084747,0.024185 0.174042,0.049149 0.265915,0.074936c-0.080978,0.004822 -0.141937,0.018875 -0.178696,0.041748c-0.028259,-0.041794 -0.05806,-0.080963 -0.087219,-0.116684z" filter="url(#filter3036)" stroke-dashoffset="0" stroke-miterlimit="4" stroke-linejoin="round" stroke-linecap="round" fill-rule="nonzero" fill="#e9b96e"/>
   <g id="g4713" transform="matrix(0.126488, 0, 0, 0.126488, 253.224, 247.598)">
    <path d="m-1121.027832,-1791.860352c-0.743652,-0.022583 -1.648071,0.72168 -2.754761,2.239868c-16.899292,23.182739 -37.379639,70.998901 -57.995117,129.136719c5.078979,-41.467285 6.643921,-74.799805 2.699097,-93.172363c-3.012695,-14.029663 -24.8573,39.133911 -38.085205,96.755127c-1.423462,-13.332397 -3.578247,-24.047607 -6.59314,-31.397583c-5.712158,-13.924316 -26.966187,62.348267 -30.624146,126.584595c-3.876709,-18.812256 -8.584595,-33.094238 -14.21167,-41.169067c-6.05249,-8.685181 -15.314575,35.702148 -17.121582,84.035278c-5.931519,-14.094849 -12.089844,-24.414917 -18.447998,-29.725708c-2.033569,-1.698486 -3.855347,0.281006 -5.309082,4.957031c-10.765869,-27.105957 -22.078125,-45.777954 -25.467529,-39.765381c-4.740723,8.409912 -6.641113,23.293823 -6.388062,42.735718c-19.841431,-51.369873 -51.251831,-101.744873 -54.043945,-90.289551c-1.983887,8.140015 -1.63269,20.442505 0.606567,35.780273c-26.018311,-45.783325 -56.301392,-84.02832 -56.485352,-72.143433c-0.11731,7.586304 1.604736,17.773804 4.909302,30.067261c-31.576416,-44.337646 -65.349609,-79.380981 -63.197998,-66.347534c2.531372,15.334717 12.353638,39.049072 26.990601,67.811279c-0.345215,-0.414307 -0.62793,-0.839722 -0.974976,-1.254639c-46.040039,-55.063843 -108.575195,-105.32312 -101.191284,-87.380737c10.570435,25.685547 41.03479,68.013672 80.573853,116.357788c-33.964111,-27.375 -62.802856,-47.44873 -81.560303,-55.003296c-14.323364,-5.768555 20.024902,40.648682 63.526001,83.243896c-12.75,-6.5448 -23.57959,-11.066528 -31.943604,-13.02771c-15.845581,-3.715698 39.489136,55.423462 94.622681,94.721191c-19.108887,-7.855347 -34.701294,-12.542725 -45.276367,-12.988281c-11.373901,-0.47937 22.712036,31.664917 64.762085,60.535522c-16.129272,-3.650513 -29.041138,-4.963135 -37.587036,-3.294312c-6.928711,1.353271 8.178833,14.987183 32.111084,30.718018c5.118774,7.446411 12.181274,15.73291 20.934326,24.607056c-50.352417,-27.379883 -120.738525,-47.570923 -116.145264,-36.976318c3.76123,8.675415 14.82251,19.63208 31.0625,32.019531c-55.810913,-19.618652 -118.537476,-30.694092 -110.947876,-21.383789c5.393066,6.615723 15.69812,14.332642 29.882568,22.710205c-55.349854,-11.785278 -107.307861,-15.77124 -97.608398,-7.967163c6.191528,4.981445 15.709595,10.395752 28.094238,16.077881c-57.894897,-7.050171 -109.526733,-6.658081 -97.30603,0.291016c14.378174,8.175903 40.57373,16.805054 74.196289,25.377319c-0.574707,-0.031738 -1.150757,-0.091553 -1.727173,-0.122314c-76.493286,-4.088379 -160.082031,6.255005 -140.283203,12.797119c28.34314,9.365479 83.877563,15.845459 150.442139,20.038574c-45.481323,5.541626 -81.491333,12.317261 -100.3573,20.264526c-14.406372,6.068604 47.071655,12.509766 111.550415,10.279175c-13.988892,4.491333 -25.029175,9.038818 -32.278442,13.491699c-13.733643,8.436157 72.423584,8.778198 142.004517,-3.538086c-19.351074,7.993042 -33.699585,15.593384 -41.183838,22.537598c-8.049683,7.468994 41.415894,4.921143 93.574097,-5.18396c-13.870483,8.672119 -23.690796,16.657715 -28.061646,23.580444c-6.158691,9.753784 63.117188,-1.847412 117.063232,-22.601318c-25.97229,18.935791 -43.415527,35.89917 -46.417236,48.380371c-1.894043,7.875977 35.028198,-0.61084 72.640137,-16.405151c-21.439087,39.195557 -34.004395,84.282959 -24.090454,82.064575c11.969604,-2.678345 27.418823,-15.525146 44.632568,-34.89917c-22.54541,50.082764 -34.351807,116.913452 -23.50708,110.90625c8.880371,-4.919067 19.196655,-16.780518 30.328613,-33.565308c-13.34436,53.605713 -16.380127,111.920837 -7.355957,103.450989c6.412354,-6.018555 13.207031,-16.702209 20.279419,-30.92865c-4.907837,51.799744 -1.822388,99.197937 5.266479,89.100891c4.525024,-6.445068 9.043091,-15.964478 13.446411,-28.095947c0.593994,53.244141 8.426025,99.553833 14.227661,87.344604c6.826172,-14.364624 12.406006,-39.409424 16.921387,-71.126587c0.047363,0.521606 0.095337,1.021484 0.144043,1.544678c6.457275,69.4198 29.557983,142.632446 33.838867,123.690063c6.128052,-27.117065 5.338745,-78.118042 0.409302,-138.640259c12.49231,39.859131 24.91394,71.038086 36.226685,86.568237c8.638672,11.859253 6.924927,-44.537842 -4.679565,-102.045532c6.867065,11.764526 13.30603,20.893799 19.171631,26.612671c11.112427,10.834473 -0.802734,-66.639343 -24.080688,-126.937073c11.431641,15.957886 21.771606,27.517334 30.374512,33.004639c9.253052,5.901855 -0.503174,-38.039917 -18.899902,-83.084595c11.387939,10.915649 21.428101,18.273926 29.564209,20.96936c11.463745,3.797729 -11.033203,-56.286255 -41.242188,-101.044434c12.053711,9.920532 23.290771,17.962158 33.247803,23.671265c0.059692,0.03418 0.108154,0.092041 0.167725,0.125977c23.929688,17.256226 44.92749,27.602417 45.72644,21.162109c1.379028,-11.117554 -6.620605,-28.484009 -20.745117,-49.342163c44.139526,35.070068 109.371216,66.17334 106.905029,54.977295c-2.019287,-9.168091 -10.758545,-21.720825 -24.309204,-36.5448c50.991943,28.275146 110.428467,49.221069 104.77417,38.815674c-4.017944,-7.393921 -12.685425,-16.59668 -24.991333,-27.132446c52.048706,20.464844 102.307861,32.687012 94.292603,23.432739c-5.116211,-5.907227 -13.45813,-12.790894 -24.517456,-20.377563c55.459229,16.19397 106.281616,23.975098 95.627441,15.163452c-12.535034,-10.367432 -36.591431,-23.040527 -67.936523,-36.867798c0.557861,0.123047 1.116333,0.287964 1.676025,0.410278c74.282227,16.234375 158.215393,19.365112 140.045532,9.746948c-26.011108,-13.768921 -79.173096,-29.072632 -143.691162,-43.827393c45.702881,1.778564 82.377441,0.885864 102.423828,-3.9552c15.307861,-3.696777 -43.801147,-19.930054 -107.51001,-28.00769c14.594116,-2.205444 26.285645,-4.909912 34.258057,-8.1521c15.10376,-6.14209 -69.399536,-20.164429 -140.059204,-19.09436c20.531494,-4.80896 36.100098,-10.054932 44.783203,-15.719971c9.339233,-6.093262 -39.655518,-11.49707 -92.790649,-9.832886c15.283691,-6.353516 26.395386,-12.63916 32.019165,-18.779297c7.923584,-8.651489 -62.282471,-8.286743 -119.224365,3.609497c29.138306,-14.560791 49.532715,-28.539307 54.883789,-40.387817c2.294434,-5.080688 -14.525146,-5.481445 -38.036743,-2.260864c22.089111,-22.22998 36.235229,-42.587524 28.928467,-43.562744c-12.114258,-1.617065 -31.69104,5.070313 -55.562012,17.220825c41.53064,-38.956665 80.161499,-97.211914 67.697998,-95.337769c-10.205811,1.534668 -24.599243,9.068848 -41.80481,20.895752c34.53772,-45.405396 61.62439,-98.75 49.811157,-93.953369c-8.394409,3.408569 -19.165161,11.018066 -31.57666,21.85437c26.033325,-46.62146 42.87793,-91.921997 32.167236,-84.942505c-6.83667,4.4552 -14.942993,11.846436 -24.030518,21.646484c21.576294,-49.859863 33.625732,-95.766479 23.220581,-86.374634c-12.24231,11.049927 -27.795166,32.555786 -45.123413,60.583252c0.173218,-0.50293 0.385742,-1.034912 0.55835,-1.539429c20.76062,-60.683472 30.237061,-128.989624 23.048462,-129.206909zm-232.26062,342.913086c0.050659,0.119263 0.059326,0.225342 0.109985,0.343872c0.199097,1.61084 0.455444,3.237793 0.690308,4.893188c-1.655762,-0.939819 -3.271606,-1.87561 -5.024292,-2.860107c2.017456,-0.320068 3.447754,-1.061768 4.223999,-2.376953zm110.990845,-6.595459c1.434692,1.297974 2.987549,1.90979 4.603516,1.695435c-1.525879,2.140869 -2.88562,4.127319 -4.115356,6.049683c-0.139648,-2.49353 -0.317261,-5.059204 -0.488159,-7.745117zm-199.59375,119.463745c2.610107,0.834106 5.060669,1.520752 7.375122,2.145264c-2.642334,0.727661 -5.441528,1.52832 -8.283691,2.330444c1.093018,-1.586182 1.473267,-3.095093 0.908569,-4.475708zm295.74585,38.502319c-1.378296,1.392456 -1.996094,2.813354 -1.707886,4.26709c-2.400757,-1.240112 -4.632935,-2.347778 -6.784058,-3.333618c2.733521,-0.297363 5.548096,-0.59436 8.491943,-0.933472zm-147.995483,97.371582c1.166382,2.243774 2.34375,4.618286 3.619019,7.028198c-1.877319,-0.699707 -3.56958,-0.71228 -4.987671,0.040039c0.533569,-2.492188 1.020508,-4.878784 1.368652,-7.068237z" id="path4602" stroke-dashoffset="0" stroke-miterlimit="4" stroke-linejoin="round" stroke-linecap="round" stroke-width="0.393935" fill-rule="nonzero" fill="#3f553c" opacity="0.88"/>
    <g id="g4596" transform="matrix(1.30715, -0.121883, 0.260261, 2.79121, -1590.56, -1980.61)" opacity="0.88">
     <path id="path4598" d="m154.421921,273.351501l45.714294,0c11.259979,161.647186 -3.675598,385.281738 15.627899,488.975769c-50.764313,7.773193 -56.982605,8.006042 -101.130562,0.591736c22.063057,-105.575195 26.185249,-320.980682 39.788368,-489.567505z" filter="url(#filter3036)" stroke-dashoffset="0" stroke-miterlimit="4" stroke-linejoin="round" stroke-linecap="round" fill-rule="nonzero" fill="#e0c6aa"/>
     <path d="m202.882706,421.666229c-19.643127,4.430481 -38.337463,4.791809 -56.40625,2.53125c-1.096008,21.822388 -2.15152,43.800598 -3.21875,65.75c20.311066,2.608826 40.214355,1.907104 59.6875,-2.1875c0.046692,-22.175293 0.076538,-44.326965 -0.0625,-66.09375zm0.03125,71.6875c-20.91684,4.722778 -40.749969,4.853394 -59.90625,2.09375c-1.0867,22.11734 -2.25589,44.123383 -3.625,65.687531c21.68222,3.231384 42.89267,2.680237 63.625,-1.6875c-0.157745,-21.750061 -0.13974,-43.895447 -0.09375,-66.093781zm0.125,69.187531c-22.38266,5.374329 -43.494965,5.449463 -63.875,2.3125c-1.45285,22.420715 -3.151978,44.358459 -5.25,65.4375c24.085815,4.02533 47.612213,3.402588 70.53125,-1.90625c-0.818939,-21.177429 -1.2229,-43.267944 -1.40625,-65.84375zm1.53125,69.34375c-25.000214,6.256592 -48.443298,5.878418 -71,1.75c-2.31778,22.714661 -5.132263,44.430969 -8.625008,64.65625c28.906013,6.18042 57.004524,5.728821 84.250008,-1.375c-2.232208,-20.169067 -3.680359,-42.02948 -4.625,-65.03125zm-3.03125,-279.21875c-17.703674,3.597107 -34.646057,3.936157 -51.0625,2.0625c-1.473267,21.438385 -2.714172,43.461212 -3.84375,65.718719c19.111908,2.316772 37.850128,1.629395 56.21875,-2c-0.163361,-22.532654 -0.537415,-44.594299 -1.3125,-65.781219zm8,347.40625c-30.248138,8.3479 -58.184296,6.896362 -85.000008,0.65625c-4.058228,22.990051 -6.042625,42.950928 -7.725365,63.151794c43.398621,6.269836 59.218445,6.512634 98.674438,-0.375c-1.371582,-18.905151 -2.708862,-39.777771 -5.949066,-63.433044z" id="path4600" stroke-dashoffset="0" stroke-miterlimit="4" stroke-linejoin="round" stroke-linecap="round" fill-rule="nonzero" fill="url(#linearGradient4732)"/>
    </g>
    <path d="m-1299.787231,-1364.500977c1.032104,-3.146973 0.107422,-5.978638 -2.998657,-8.291504c-1.277344,-0.950928 -2.562012,-1.76709 -3.92334,-2.451904c5,-8.689697 -1.674194,-30.132813 -18.437744,-55.255981c-21.94397,-32.886841 -66.988647,-68.427246 -69.116699,-59.76355c-2.115723,8.613403 2.489136,22.805298 11.576782,40.256714c-31.211304,-30.917847 -79.260132,-60.360474 -78.378906,-51.388184c0.721558,7.346924 6.364014,17.892212 15.566772,30.566406c-37.199951,-26.117798 -81.690674,-47.133911 -78.244751,-38.535645c2.448608,6.110107 8.370605,14.016602 17.001465,23.231201c-38.755127,-20.073608 -76.894043,-33.538086 -71.495972,-25.660034c3.445679,5.028564 9.343872,11.052612 17.276123,17.85791c-41.818604,-16.987305 -80.770386,-27.035034 -73.269165,-19.300293c8.825562,9.10022 26.439087,20.894897 49.637939,34.162476c-0.424438,-0.139648 -0.847412,-0.276733 -1.273315,-0.415894c-56.521484,-18.473511 -121.858887,-27.425049 -108.561035,-18.476929c19.036865,12.80957 59.16333,28.909302 108.194214,45.467773c-35.542236,-4.926758 -64.25647,-7.038452 -80.371094,-4.790405c-12.305542,1.716431 32.354736,18.985718 81.376831,30.244507c-11.608643,0.602051 -21.006958,1.802124 -27.538696,3.729004c-12.37439,3.650513 52.333984,21.223999 107.641113,25.845093c-16.490601,2.185181 -29.144165,5.101929 -36.457397,8.87439c-7.865967,4.057617 29.939697,12.055786 71.610474,14.856689c-12.534912,3.802124 -21.830444,7.902588 -26.797852,12.284058c-6.998779,6.17334 47.874512,11.269531 93.474976,6.339111c-24.126099,9.169067 -41.349365,18.555054 -46.636719,27.434814c-4.665161,7.834839 55.497803,6.658447 96.110596,-5.79541c30.459595,-9.340332 50.937866,-21.583374 54.034058,-31.024414zm-106.142334,-38.384644c-2.163696,0.021851 -4.400391,0.052734 -6.7323,0.091309c1.207031,-0.985596 1.804199,-2.060913 1.7146,-3.223267c1.760132,1.157959 3.428955,2.192261 5.0177,3.131958z" id="path4604" stroke-dashoffset="0" stroke-miterlimit="4" stroke-linejoin="round" stroke-linecap="round" stroke-width="0.310194" fill-rule="nonzero" fill="#649537" opacity="0.88"/>
    <path d="m-1333.114136,-1319.748291c-2.697144,-2.115356 -5.92749,-2.486816 -9.585083,-0.846313c-1.503906,0.674561 -2.876465,1.409302 -4.151001,2.260132c-6.515259,-7.618896 -30.835083,-10.701538 -63.206177,-6.918701c-42.374634,4.951904 -97.415771,27.938477 -89.681396,33.172607c7.689331,5.203979 23.866821,7.088867 45.244385,6.575195c-44.424805,13.403564 -94.674927,41.319458 -85.327759,44.189453c7.654053,2.35022 20.637329,1.914917 37.291382,-0.610229c-42.224854,20.280029 -82.512573,48.633911 -72.427124,49.233643c7.166748,0.426147 17.634644,-1.298706 30.58374,-4.738647c-36.859497,23.98999 -66.847778,50.12146 -56.635742,48.818237c6.518555,-0.831787 15.094971,-3.291992 25.33374,-7.120605c-35.10376,27.76062 -62.030396,55.934326 -51.049683,52.834839c12.919556,-3.646606 32.34082,-13.478027 55.65564,-27.336426c-0.323486,0.2948 -0.644043,0.589478 -0.967651,0.885864c-42.962891,39.32019 -80.233154,89.748291 -65.526978,82.342896c21.052612,-10.601074 54.535889,-37.318726 92.337769,-71.213989c-20.331421,27.408813 -34.890015,50.301636 -39.629883,64.526123c-3.619507,10.862061 32.997803,-19.134644 65.500366,-55.148315c-4.431152,9.838745 -7.306274,18.090332 -8.212646,24.263428c-1.717041,11.694824 43.89563,-34.755005 72.490479,-78.627441c-4.965698,14.510254 -7.537109,26.141602 -6.93811,33.70105c0.644409,8.130615 25.026367,-19.917603 45.890503,-53.245972c-1.63501,11.888306 -1.567627,21.21814 0.65686,27.082275c3.134521,8.262451 32.015991,-35.060547 46.858276,-74.73877c-1.297241,23.624023 0.614624,41.628174 7.19519,49.561035c5.806396,6.999512 30.713257,-43.212646 35.875977,-81.784668c3.871704,-28.929077 0.516357,-50.770142 -7.575073,-57.116699zm-84.370728,72.358765c-0.916016,1.797485 -1.854858,3.659302 -2.827393,5.602539c-0.461426,-1.393188 -1.276978,-2.318115 -2.477295,-2.710327c1.920288,-0.990723 3.677124,-1.955566 5.304688,-2.892212z" id="path4606" stroke-dashoffset="0" stroke-miterlimit="4" stroke-linejoin="round" stroke-linecap="round" stroke-width="0.310194" fill-rule="nonzero" fill="#649537" opacity="0.88"/>
    <path d="m-1259.500854,-1151.122681c-19.351563,49.853394 -60.734375,61.4646 -101.848633,48.847656c-41.114258,-12.616943 -66.46814,-44.707764 -47.116455,-94.561035c19.351685,-49.853516 68.425659,-80.074341 109.540161,-67.457397c41.11438,12.616943 58.776611,63.317383 39.424927,113.170776z" id="path4608" stroke-dashoffset="0" stroke-miterlimit="4" stroke-linejoin="round" stroke-linecap="round" fill-rule="nonzero" fill="url(#linearGradient4734)" opacity="0.88"/>
    <path id="path4610" d="m-1259.500854,-1151.122681c-19.351563,49.853394 -60.734375,61.4646 -101.848633,48.847656c-41.114258,-12.616943 -66.46814,-44.707764 -47.116455,-94.561035c19.351685,-49.853516 68.425659,-80.074341 109.540161,-67.457397c41.11438,12.616943 58.776611,63.317383 39.424927,113.170776z" stroke-dashoffset="0" stroke-miterlimit="4" stroke-linejoin="round" stroke-linecap="round" fill-rule="nonzero" fill="#000000" opacity="0.88"/>
    <path d="m-1316.052734,-1224.009888c-35.836182,27.287109 -69.213745,19.749756 -91.377441,-4.490845c-22.163696,-24.240601 -24.761597,-56.050537 11.074463,-83.337402c35.83606,-27.287109 82.908447,-29.759399 105.072021,-5.518799c22.163574,24.240723 11.067139,66.060181 -24.769043,93.347046z" id="path4612" stroke-dashoffset="0" stroke-miterlimit="4" stroke-linejoin="round" stroke-linecap="round" fill-rule="nonzero" fill="url(#linearGradient4736)" opacity="0.88"/>
    <path d="m-1216.258301,-1339.950317c1.165283,3.07251 3.739624,4.855347 7.778076,5.065796c1.6604,0.086548 3.240723,0.060913 4.800293,-0.110596c1.447388,9.622681 20.672485,23.295898 50.561157,34.577271c39.124756,14.767578 98.968872,19.42627 95.173584,11.345825c-3.773193,-8.033569 -16.651978,-16.983643 -35.30835,-26.174683c45.494507,8.277588 103.907227,6.450806 97.436768,-0.282959c-5.29834,-5.514038 -16.696167,-10.987915 -32.388794,-16.284058c47.351685,1.252808 97.439453,-5.45166 89.096802,-10.526611c-5.928223,-3.606201 -15.866943,-6.814209 -28.873047,-9.636841c44.761841,-4.422119 84.784546,-13.821899 75.295898,-17.284424c-6.057007,-2.210205 -14.770386,-3.920166 -25.658691,-5.179321c45.307983,-8.521851 83.812134,-21.09436 72.683472,-23.327759c-13.093506,-2.627808 -35.147583,-2.762207 -62.743408,-1.119507c0.438721,-0.112671 0.874878,-0.226807 1.314697,-0.340698c58.365112,-15.118774 117.891724,-42.549927 101.21344,-42.686035c-23.875793,-0.194824 -67.222351,8.143066 -118.193787,20.830078c32.417969,-14.875977 57.411621,-28.393677 69.23999,-38.735229c9.032349,-7.896973 -38.795654,1.904053 -86.366577,18.839844c9.172363,-6.633179 16.141846,-12.575562 20.285889,-17.582397c7.850952,-9.485596 -56.678345,10.692749 -105.17395,36.285522c12.178223,-10.490356 20.72876,-19.534912 24.334595,-26.437012c3.878296,-7.423706 -32.370117,6.186401 -68.472656,26.015381c7.885986,-9.692261 12.913696,-17.907715 14.19812,-24.055786c1.80957,-8.662354 -46.632935,16.319092 -81.02063,44.434692c13.992798,-20.140381 22.163696,-36.797729 20.831177,-46.725586c-1.175781,-8.759399 -49.957031,24.058594 -75.420776,55.569824c-19.0979,23.633301 -28.119385,44.308228 -24.623291,53.525269zm111.96936,-25.42749c1.767212,-1.16394 3.588989,-2.373779 5.484131,-3.640137c-0.362427,1.430664 -0.165771,2.609863 0.6521,3.495361c-2.190552,0.003052 -4.226807,0.057129 -6.13623,0.144775z" id="path4614" stroke-dashoffset="0" stroke-miterlimit="4" stroke-linejoin="round" stroke-linecap="round" stroke-width="0.310194" fill-rule="nonzero" fill="#649537" opacity="0.88"/>
    <path d="m-1255.063965,-1372.452393c3.592896,-0.09314 6.306641,-1.786499 7.863647,-5.211792c0.640259,-1.408325 1.136841,-2.781128 1.474243,-4.178833c10.523926,1.610474 31.163452,-10.929199 52.837891,-33.389893c28.37207,-29.401245 53.053589,-79.702515 43.362183,-78.826538c-9.63562,0.870605 -23.243164,9.333008 -39.015747,22.713867c23.707031,-36.831909 41.144775,-87.824829 31.973022,-84.238281c-7.510498,2.93689 -16.999023,11.153809 -27.724365,23.132568c16.989258,-40.524292 26.578491,-85.777222 18.518188,-80.080322c-5.727661,4.047974 -12.367798,11.678101 -19.62146,22.072266c10.208008,-39.974609 13.650146,-77.335815 6.893555,-70.169922c-4.31311,4.574219 -8.983398,11.591553 -13.903809,20.621216c6.109131,-41.665161 5.736938,-78.657837 -0.279907,-69.710083c-7.079224,10.527344 -14.523071,29.535034 -21.947266,53.857422c0.027588,-0.412598 0.052856,-0.82312 0.079468,-1.236694c3.547363,-54.90332 -5.373047,-114.470093 -11.038574,-100.105835c-8.110352,20.563232 -13.761963,60.47937 -17.398926,108.274048c-4.792236,-32.421021 -10.62561,-58.026123 -17.503296,-71.316406c-5.252075,-10.14856 -10.860474,34.07312 -8.936279,80.193848c-3.886353,-9.893799 -7.781128,-17.679932 -11.635132,-22.747437c-7.301514,-9.600464 -7.608643,52.130859 3.045898,101.623657c-6.917358,-13.636597 -13.526733,-23.710327 -19.537354,-28.876465c-6.464844,-5.556519 -4.262329,29.796387 4.47998,66.872314c-7.505615,-9.692139 -14.41626,-16.476929 -20.408447,-19.41394c-8.442993,-4.137939 1.590942,45.127319 19.551392,83.185303c-16.389648,-18.07251 -31.071533,-30.081299 -41.875732,-31.881714c-9.532959,-1.588623 8.569092,50.298828 33.029053,81.658936c18.344971,23.520386 36.938721,37.458008 47.717773,37.178711zm10.53833,-104.264771c-0.629517,-1.872559 -1.289185,-3.805664 -1.983276,-5.818848c1.373047,0.738403 2.669189,0.918945 3.864502,0.47583c-0.722412,1.892944 -1.340332,3.667603 -1.881226,5.343018z" id="path4616" stroke-dashoffset="0" stroke-miterlimit="4" stroke-linejoin="round" stroke-linecap="round" stroke-width="0.310194" fill-rule="nonzero" fill="#649537" opacity="0.88"/>
    <path id="path4618" d="m-1316.052734,-1224.009888c-35.836182,27.287109 -69.213745,19.749756 -91.377441,-4.490845c-22.163696,-24.240601 -24.761597,-56.050537 11.074463,-83.337402c35.83606,-27.287109 82.908447,-29.759399 105.072021,-5.518799c22.163574,24.240723 11.067139,66.060181 -24.769043,93.347046z" stroke-dashoffset="0" stroke-miterlimit="4" stroke-linejoin="round" stroke-linecap="round" fill-rule="nonzero" fill="#000000" opacity="0.88"/>
    <path id="path4620" d="m-1307.918823,-1361.630005c-2.161987,-3.619873 -5.80188,-5.363892 -10.924927,-4.86853c-2.106445,0.203735 -4.086914,0.532471 -6.00769,1.039551c-4.00293,-11.75061 -31.267578,-25.223877 -71.390747,-33.706543c-52.522217,-11.10376 -128.789063,-5.68689 -122.185547,3.696289c6.565186,9.328491 24.781982,18.092285 50.314575,26.072388c-59.054321,-1.799316 -132.050781,11.45166 -122.390747,18.64978c7.910278,5.894287 23.477051,10.593018 44.400635,14.263306c-59.794067,7.326294 -121.221069,25.108154 -109.584473,29.882324c8.268921,3.392334 21.487305,5.53418 38.473755,6.61853c-55.251465,13.930176 -103.417358,33.189697 -90.706299,35.734009c8.113525,1.624146 19.452271,2.124146 33.422119,1.65271c-55.007446,19.155029 -100.544678,42.093262 -86.051636,42.793945c17.051636,0.824463 44.798828,-3.149048 79.107544,-10.383301c-0.525879,0.223389 -1.048096,0.447754 -1.574951,0.672729c-69.9198,29.848877 -138.505249,75.29895 -117.513794,72.337158c30.050537,-4.239868 82.634644,-22.796509 143.814209,-48.219116c-37.365479,24.67334 -65.708862,46.255615 -78.227417,61.397339c-9.559326,11.5625 48.324951,-9.664063 104.266846,-39.756104c-10.022095,10.009766 -17.432495,18.74292 -21.504395,25.776611c-7.713989,13.325439 68.80481,-24.002441 123.94397,-65.084229c-12.924438,15.393311 -21.617798,28.299194 -24.583008,37.599731c-3.189331,10.003296 39.277344,-13.807617 80.149536,-45.361084c-7.710938,13.590088 -12.165405,24.798706 -12.384155,32.721191c-0.30835,11.162598 54.902954,-29.145508 91.739258,-70.730347c-13.014893,27.790894 -19.503296,50.136841 -15.575562,62.290283c3.465454,10.723145 57.324097,-39.439331 82.174683,-83.59082c18.637939,-33.113403 25.283569,-60.638428 18.798218,-71.497803zm-134.948242,52.794434c-1.956787,1.785889 -3.971924,3.639771 -6.066406,5.577515c0.131104,-1.855225 -0.383789,-3.291626 -1.612793,-4.244385c2.752563,-0.415161 5.299194,-0.865112 7.679199,-1.33313z" stroke-dashoffset="0" stroke-miterlimit="4" stroke-linejoin="round" stroke-linecap="round" stroke-width="0.393935" fill-rule="nonzero" fill="#96c769" opacity="0.88"/>
    <path d="m-1191.954468,-1205.221436c-5.044922,52.453979 -42.077881,73.099976 -85.543335,70.342407c-43.465454,-2.757568 -76.985229,-27.879761 -71.940063,-80.33374c5.0448,-52.453857 44.415649,-92.787231 87.881104,-90.029541c43.465454,2.757568 74.647461,47.566895 69.602295,100.020874z" id="path4622" stroke-dashoffset="0" stroke-miterlimit="4" stroke-linejoin="round" stroke-linecap="round" fill-rule="nonzero" fill="url(#linearGradient4738)" opacity="0.88"/>
    <path id="path4624" d="m-1254.092407,-1369.38562c-3.72229,2.461182 -5.242188,5.993042 -4.162109,10.548706c0.444092,1.873047 1.01123,3.614868 1.766968,5.277588c-12.400757,5.2677 -24.232056,31.779541 -29.263306,69.198608c-6.586304,48.982178 7.354736,117.077759 16.897949,109.79541c9.488037,-7.240234 17.133057,-24.920532 23.152588,-49.095703c4.254395,53.570557 26.399414,117.610962 33.236938,107.876465c5.598877,-7.971313 9.087158,-22.687012 10.889038,-42.09436c14.290161,52.954224 40.161255,105.911377 44.145386,94.733521c2.831299,-7.942993 3.776611,-20.178711 3.171143,-35.66748c21.018066,47.923706 47.105103,88.700012 48.543213,76.865906c0.917969,-7.553894 0.269775,-17.861511 -1.715576,-30.407898c26.693481,46.968079 56.518066,84.853455 55.756714,71.669861c-0.895752,-15.51123 -8.152954,-40.003662 -19.659302,-69.961243c0.29895,0.443359 0.598877,0.883301 0.89978,1.327271c39.932617,58.926941 96.748779,114.453674 91.306763,95.918152c-7.790649,-26.534424 -33.576172,-71.398743 -67.758667,-123.057434c30.857666,30.263428 57.392334,52.816223 75.232788,61.987732c13.623535,7.003662 -15.633423,-42.270203 -54.359741,-88.542786c11.977783,7.639771 22.287598,13.10144 30.391479,15.787842c15.352661,5.089478 -33.435791,-58.742798 -84.069458,-102.744141c18.157837,9.502563 33.156006,15.535278 43.616821,16.903687c11.251343,1.471802 -19.202393,-33.518677 -57.936646,-65.97998c15.641357,5.049438 28.340942,7.493774 37.009033,6.576416c12.212891,-1.29248 -37.583984,-45.467896 -86.839478,-72.873779c31.695435,7.839844 56.762329,10.553345 69.610474,5.296875c11.33606,-4.637817 -49.071411,-46.205078 -99.865601,-62.428589c-38.095581,-12.16748 -68.830322,-14.294189 -79.997192,-6.910645zm71.817627,114.408813c2.154785,1.515503 4.389893,3.073975 6.724976,4.692383c-2.03833,0.142456 -3.551392,0.809692 -4.46167,2.053223c-0.742798,-2.426636 -1.501953,-4.66272 -2.263306,-6.745605z" stroke-dashoffset="0" stroke-miterlimit="4" stroke-linejoin="round" stroke-linecap="round" stroke-width="0.393935" fill-rule="nonzero" fill="#96c769" opacity="0.88"/>
    <path id="path4626" d="m-1217.031128,-1386.231689c4.097534,1.759766 8.211304,1.231079 12.112183,-1.880737c1.60376,-1.279419 3.023926,-2.592529 4.28064,-4.01709c10.819824,7.309692 41.894775,3.678223 80.361206,-10.77124c50.353516,-18.914429 109.678589,-63.667358 98.233887,-67.698975c-11.378784,-4.008545 -31.988892,-1.390869 -58.120605,5.731689c49.773926,-29.842529 101.390137,-79.149902 88.827515,-79.80896c-10.286987,-0.539673 -26.112305,3.936401 -45.689575,12.076172c44.539673,-37.558228 83.729126,-84.372559 71.091431,-82.03894c-8.980469,1.658081 -21.234863,6.942261 -35.914795,15.071289c36.571167,-40.451538 63.895874,-81.426025 51.80127,-76.733643c-7.720093,2.994995 -17.375854,8.60083 -28.575928,16.380249c33.024658,-44.515259 55.829712,-87.049438 43.448486,-79.933594c-14.567383,8.372192 -34.868408,26.26123 -58.484009,50.24353c0.289917,-0.457886 0.576172,-0.914673 0.865845,-1.37439c38.455444,-60.997925 65.822632,-133.809937 50.435791,-120.31189c-22.026855,19.323486 -53.439331,62.074707 -87.532837,114.889893c14.965942,-39.597534 24.48291,-71.934326 25.094604,-90.718628c0.467041,-14.343872 -33.599854,33.358032 -60.390869,87.145874c1.842285,-13.342896 2.351685,-24.27771 1.200562,-32.079834c-2.181274,-14.781006 -41.280884,55.715332 -60.374146,117.897705c0.784668,-19.20105 -0.321411,-34.164307 -3.835083,-43.199585c-3.779541,-9.717651 -23.497681,31.890381 -36.945557,78.867188c-2.353027,-14.992065 -5.862549,-26.34729 -10.755127,-32.821411c-6.893677,-9.121826 -26.54187,52.477905 -30.243652,105.36731c-7.078857,-29.19873 -16.045166,-50.569946 -27.060913,-58.242798c-9.71936,-6.769897 -21.943848,62.021729 -14.133911,110.620972c5.857544,36.449341 18.010376,62.060547 30.303589,67.339844zm77.303223,-113.864624c0.467773,-2.470093 0.939819,-5.025269 1.423462,-7.690186c1.080078,1.558472 2.423828,2.438477 4.045532,2.55188c-2.000244,1.791504 -3.809082,3.501953 -5.468994,5.138306z" stroke-dashoffset="0" stroke-miterlimit="4" stroke-linejoin="round" stroke-linecap="round" stroke-width="0.393935" fill-rule="nonzero" fill="#96c769" opacity="0.88"/>
    <path id="path4628" d="m-1290.65271,-1392.928711c3.64209,-2.559448 5.046509,-6.128906 3.817505,-10.651001c-0.505371,-1.859253 -1.129639,-3.583984 -1.939575,-5.224731c12.22937,-5.598145 23.194702,-32.404297 27.00293,-69.922974c4.984985,-49.112793 -11.184082,-116.764771 -20.490112,-109.231201c-9.252075,7.489746 -16.31958,25.359619 -21.54895,49.674194c-6.006714,-53.40332 -30.248047,-116.782104 -36.7677,-106.87207c-5.338867,8.11499 -8.346069,22.910767 -9.51355,42.3479c-16.023193,-52.515991 -43.628296,-104.72168 -47.247192,-93.446777c-2.571777,8.011841 -3.116943,20.26123 -2.005005,35.718628c-22.587036,-47.308472 -50.01001,-87.339355 -51.061157,-75.477783c-0.671021,7.571411 0.314453,17.85144 2.710205,30.331909c-28.232056,-46.200195 -59.297974,-83.241821 -58.105469,-70.091675c1.403076,15.472046 9.461914,39.744263 21.948975,69.36145c-0.313721,-0.434814 -0.62793,-0.866211 -0.943359,-1.301636c-41.863037,-57.789063 -100.500122,-111.724609 -94.451416,-93.35437c8.658936,26.297852 35.913818,70.420776 71.788696,121.10437c-31.849976,-29.399048 -59.12439,-51.212036 -77.266479,-59.891846c-13.853638,-6.628296 17.017212,41.80603 57.260132,86.98584c-12.228638,-7.30835 -22.718018,-12.485718 -30.9104,-14.950195c-15.52063,-4.669189 35.359741,57.780884 87.436768,100.369507c-18.470337,-9.001953 -33.666992,-14.623047 -44.173584,-15.707153c-11.300415,-1.165894 20.300171,32.966553 60.099487,64.348267c-15.807983,-4.621338 -28.588623,-6.719727 -37.227417,-5.568848c-12.171875,1.621704 39.074219,44.40686 89.230225,70.453247c-31.95459,-6.974487 -57.112427,-9.00708 -69.789795,-3.408081c-11.185425,4.939941 50.586792,44.832397 101.915894,59.665771c38.496704,11.124756 69.303833,12.417847 80.230347,4.739258zm-75.56543,-112.354248c-2.20459,-1.455688 -4.490723,-2.952148 -6.879028,-4.505737c2.033813,-0.197632 3.525269,-0.905029 4.394897,-2.171997c0.822266,2.404175 1.654663,4.617432 2.484131,6.677734z" stroke-dashoffset="0" stroke-miterlimit="4" stroke-linejoin="round" stroke-linecap="round" stroke-width="0.393935" fill-rule="nonzero" fill="#96c769" opacity="0.88"/>
   </g>
   <g id="g4672" transform="matrix(0.145904, 0, 0, 0.145904, 224.085, 280.139)">
    <g transform="matrix(1.31282, 0, 0, 2.80331, -383.68, -2183.16)" id="g3040">
     <path d="m158.171463,299.458923l45.714294,0c11.259979,161.647217 -3.675598,385.281738 15.627899,488.975769c-50.764313,7.773193 -56.982605,8.006042 -101.130569,0.591736c22.063065,-105.575195 26.185257,-320.980652 39.788376,-489.567505z" id="rect2956" filter="url(#filter3036)" stroke-dashoffset="0" stroke-miterlimit="4" stroke-linejoin="round" stroke-linecap="round" fill-rule="nonzero" fill="#e0c6aa"/>
     <path id="path2993" d="m206.632248,447.773682c-19.643127,4.430481 -38.337463,4.791809 -56.40625,2.53125c-1.096008,21.822388 -2.15152,43.800598 -3.21875,65.75c20.311066,2.608826 40.214355,1.907104 59.6875,-2.1875c0.046692,-22.175293 0.076538,-44.326965 -0.0625,-66.09375zm0.03125,71.6875c-20.91684,4.722778 -40.749969,4.853394 -59.90625,2.09375c-1.0867,22.11731 -2.25589,44.123352 -3.625,65.6875c21.68222,3.231384 42.89267,2.680237 63.625,-1.6875c-0.157745,-21.750061 -0.13974,-43.895447 -0.09375,-66.09375zm0.125,69.1875c-22.38266,5.374329 -43.494965,5.449463 -63.875,2.3125c-1.45285,22.420715 -3.151978,44.358459 -5.25,65.4375c24.085815,4.02533 47.612213,3.402588 70.53125,-1.90625c-0.818939,-21.177429 -1.2229,-43.267944 -1.40625,-65.84375zm1.53125,69.34375c-25.000214,6.256592 -48.443298,5.878418 -71,1.75c-2.31778,22.714661 -5.132263,44.430969 -8.625,64.65625c28.906006,6.18042 57.004517,5.728821 84.25,-1.375c-2.232208,-20.169067 -3.680359,-42.02948 -4.625,-65.03125zm-3.03125,-279.21875c-17.703674,3.597107 -34.646057,3.936157 -51.0625,2.0625c-1.473267,21.438416 -2.714172,43.461243 -3.84375,65.71875c19.111908,2.316772 37.850128,1.629395 56.21875,-2c-0.163361,-22.532654 -0.537415,-44.594299 -1.3125,-65.78125zm8,347.40625c-30.248138,8.3479 -58.184296,6.896362 -85,0.65625c-4.058235,22.990051 -6.042641,42.950928 -7.72538,63.151794c43.398628,6.269836 59.218452,6.512634 98.674446,-0.375c-1.371582,-18.905151 -2.708862,-39.777771 -5.949066,-63.433044z" stroke-dashoffset="0" stroke-miterlimit="4" stroke-linejoin="round" stroke-linecap="round" fill-rule="nonzero" fill="url(#linearGradient3044)"/>
    </g>
    <path id="path2913" d="m71.222923,-1878.453247c-0.738342,-0.091431 -1.708,0.565674 -2.95089,1.974609c-18.978523,21.51355 -43.809763,67.221802 -69.733774,123.19458c8.90695,-40.81665 13.55978,-73.859985 11.33759,-92.519409c-1.696959,-14.248779 -28.383,36.657227 -46.903399,92.801514c-0.17952,-13.406982 -1.330151,-24.276001 -3.649719,-31.874146c-4.394623,-14.394531 -32.638191,59.575562 -42.244102,123.194702c-2.11322,-19.090942 -5.47493,-33.748169 -10.328079,-42.310669c-5.21994,-9.209595 -18.56308,34.126221 -24.849472,82.082764c-4.59729,-14.584717 -9.770927,-25.431885 -15.608566,-31.309937c-1.867111,-1.880005 -3.864777,-0.078247 -5.746445,4.442627c-8.202682,-27.988403 -17.732666,-47.630127 -21.665604,-41.95813c-5.501053,7.933594 -8.77507,22.57666 -10.328079,41.95813c-14.986649,-52.990112 -41.584412,-106.063599 -45.427917,-94.916992c-2.731155,7.920654 -3.523682,20.202637 -2.717926,35.682007c-21.655426,-48.001099 -48.257065,-88.892334 -49.543594,-77.07605c-0.821198,7.542603 -0.052368,17.846191 2.09668,30.393311c-27.323792,-47.077759 -57.697723,-85.105225 -56.765472,-71.928223c1.096802,15.503418 8.675079,40.027222 20.578461,70.02417c-0.305084,-0.444702 -0.547272,-0.894531 -0.854218,-1.339844c-40.729095,-59.100342 -98.328156,-114.948364 -92.641907,-96.397827c8.140137,26.555908 34.543182,71.529419 69.423218,123.335693c-31.27597,-30.410156 -58.126556,-53.074463 -76.101501,-62.337769c-13.726013,-7.073608 16.16452,42.332153 55.523041,88.781982c-12.087219,-7.700073 -22.450134,-13.207886 -30.595917,-15.937134c-15.432281,-5.170654 34.172913,58.850342 85.420013,103.097046c-18.296936,-9.595581 -33.386932,-15.710327 -43.874817,-17.135742c-11.280487,-1.533203 19.674011,33.636841 58.862183,66.286743c-15.720673,-5.132202 -28.455048,-7.638062 -37.118896,-6.769775c-7.024475,0.704102 6.751953,15.681885 29.120453,33.566528c4.405365,7.889526 10.668091,16.795898 18.559479,26.444214c-47.593079,-31.936279 -115.800629,-58.574829 -112.210876,-47.599487c2.939514,8.987061 12.935852,20.923462 27.955597,34.765137c-53.748505,-24.715454 -115.175781,-41.566528 -108.483398,-31.591919c4.755524,7.087891 14.299744,15.728149 27.64505,25.386475c-54.016602,-16.873169 -105.380096,-25.665771 -96.446991,-16.994873c5.702148,5.534912 14.676453,11.809204 26.480194,18.616699c-56.990448,-12.394653 -108.435638,-16.797729 -96.912933,-8.744141c13.557129,9.475464 38.838379,20.499268 71.519897,32.156128c-0.569275,-0.085083 -1.137329,-0.197876 -1.708374,-0.282104c-75.783325,-11.172485 -159.971497,-8.634155 -140.865417,-0.281982c27.351196,11.956299 82.044128,23.564087 147.931946,33.918945c-45.799316,1.295166 -82.282959,4.698364 -101.805176,10.859863c-14.907532,4.704834 45.706909,16.825806 110.114197,20.591187c-14.345398,3.173096 -25.760193,6.675903 -33.391541,10.436646c-14.45752,7.124756 71.295807,15.464111 141.719666,9.660889c-20.009613,6.161865 -35.00174,12.397461 -43.098236,18.616699c-8.708405,6.689453 40.780029,8.744995 93.651367,3.525879c-14.615906,7.346924 -25.135132,14.386353 -30.129944,20.873291c-7.037567,9.140015 63.016205,4.020508 118.656158,-11.635498c-27.618286,16.442871 -46.560944,31.713501 -50.708435,43.862183c-2.617096,7.666016 34.933563,2.643799 73.849503,-9.590454c-24.985397,37.035889 -41.68251,80.762085 -31.605392,79.473633c12.166534,-1.55542 28.741791,-12.912598 47.679916,-30.604736c-27.097855,47.773193 -45.057724,113.219238 -33.702133,108.244873c9.298737,-4.073364 20.67157,-14.925781 33.313812,-30.604736c-18.26355,52.135254 -26.700134,109.916748 -16.928665,102.321289c6.943497,-5.397217 14.700638,-15.403809 23.06337,-28.912231c-9.695862,51.120483 -11.024139,98.600342 -3.028503,89.205078c5.103745,-5.997192 10.486191,-15.05603 15.996826,-26.726196c-4.351883,53.069336 -0.853043,99.906006 6.057098,88.288208c8.130127,-13.668884 16.0112,-38.087524 23.451691,-69.248413c-0.001282,0.523682 0.000061,1.025879 0,1.55127c-0.01561,69.719604 16.188248,144.760681 22.209167,126.297546c8.619186,-26.431091 12.568314,-77.285095 13.278961,-138.003479c8.737946,40.846802 18.211273,73.04425 28.033295,89.557678c7.500229,12.609924 11.029938,-43.702576 4.81456,-102.039246c5.745102,12.351196 11.308762,22.038818 16.618088,28.277588c10.058533,11.819336 5.387604,-66.426025 -12.191788,-128.624512c9.900642,16.950195 19.122787,29.419678 27.1791,35.682007c8.665192,6.735474 3.030678,-37.922241 -11.104591,-84.480347c10.325378,11.925781 19.638962,20.184326 27.489681,23.623535c11.061691,4.845459 -5.759899,-57.067627 -31.683041,-104.437012c11.080521,10.996704 21.522514,20.046875 30.906521,26.655762c0.05624,0.039551 0.099152,0.101563 0.155312,0.141113c22.224258,19.403198 42.170919,31.654053 43.564209,25.315918c2.40526,-10.94165 -3.9475,-28.975708 -16.07452,-51.055054c40.69288,39.016479 102.755318,76.041626 101.339249,64.664917c-1.15958,-9.315918 -8.69553,-22.625732 -20.811459,-38.643799c48.146687,32.887207 105.381779,59.26062 100.718052,48.375244c-3.314087,-7.735107 -11.089874,-17.702637 -22.364571,-29.335449c49.924141,25.20874 98.831459,42.044189 91.710091,32.085693c-4.545807,-6.356689 -12.212677,-13.985107 -22.519836,-22.565796c53.716217,21.272949 103.596741,33.738892 93.806702,23.976196c-11.518433,-11.486572 -34.294342,-26.338379 -64.220337,-43.015991c0.544037,0.174316 1.084747,0.390381 1.630737,0.564087c72.454163,23.060669 155.734192,33.970337 138.535767,22.706787c-24.620422,-16.124268 -76.132141,-36.297607 -139.001648,-56.978394c45.340393,6.013916 81.939453,8.529907 102.348694,5.570923c15.5849,-2.259644 -41.761658,-23.910522 -104.445435,-37.868042c14.73587,-0.840942 26.62793,-2.448242 34.866913,-4.936279c15.608795,-4.713379 -67.227692,-26.520386 -137.681519,-32.015137c20.889267,-2.881958 36.877625,-6.659912 46.049194,-11.494385c9.864609,-5.199829 -38.416771,-15.129028 -91.477112,-18.405029c15.807678,-4.907104 27.454956,-10.134033 33.624451,-15.725586c8.692596,-7.878418 -61.244133,-14.033325 -119.044483,-7.474854c30.364161,-11.792847 51.968369,-23.817383 58.396229,-35.11792c2.75629,-4.845703 -13.953339,-6.806274 -37.662469,-5.782471c24.057521,-20.08313 40.032498,-39.039429 32.847932,-40.688721c-11.911871,-2.734863 -32.024881,2.106079 -56.920841,11.988037c44.968019,-34.932739 88.840458,-89.349976 76.256748,-88.640991c-10.304199,0.580566 -25.33493,6.745972 -43.564178,16.924194c38.603939,-42.002686 70.526176,-92.602173 58.318604,-88.922974c-8.674591,2.614502 -20.105282,9.191284 -33.469112,18.828369c30.249172,-44.003174 51.226795,-87.544189 39.914387,-81.589111c-7.220848,3.801147 -15.978294,10.407837 -25.936546,19.321899c26.112328,-47.641357 42.371582,-92.231079 31.139427,-83.845703c-13.215332,9.865601 -30.69762,29.834717 -50.553089,56.132202c0.219139,-0.484619 0.480129,-0.994507 0.698879,-1.480957c26.304783,-58.493896 42.081879,-125.625122 34.94455,-126.509033l-0.000015,0zm-263.093666,319.869019c0.039459,0.123413 0.038177,0.22998 0.077637,0.352539c0.048691,1.622437 0.152863,3.266113 0.233002,4.936157c-1.56134,-1.089478 -3.083282,-2.171143 -4.737,-3.314209c2.038361,-0.131348 3.531357,-0.737061 4.426361,-1.974487zm111.123672,3.737305c1.30806,1.425659 2.79744,2.178955 4.4263,2.115601c-1.718002,1.98999 -3.256378,3.841675 -4.659241,5.641479c0.092529,-2.495728 0.153793,-5.066772 0.232941,-7.75708zm-209.822632,100.41748c2.521454,1.072754 4.897675,1.984009 7.144226,2.820679c-2.698639,0.479126 -5.559937,1.016602 -8.464325,1.551392c1.235504,-1.477905 1.754303,-2.945068 1.320099,-4.37207zm290.894012,65.793213c-1.50172,1.258301 -2.24872,2.615845 -2.09668,4.089966c-2.27537,-1.457642 -4.39502,-2.7677 -6.44534,-3.948975c2.74933,-0.042358 5.579329,-0.076782 8.54202,-0.140991zm-156.39627,83.21106c0.95282,2.342285 1.904694,4.815918 2.950821,7.33374c-1.804291,-0.871094 -3.488098,-1.040649 -4.969879,-0.423096c0.762665,-2.431885 1.46904,-4.762939 2.019058,-6.910645z" stroke-dashoffset="0" stroke-miterlimit="4" stroke-linejoin="round" stroke-linecap="round" stroke-width="0.393935" fill-rule="nonzero" fill="#3f553c"/>
    <path id="path2924" d="m-146.440582,-1469.535645c1.319763,-3.037598 0.662079,-5.942993 -2.215973,-8.53418c-1.183441,-1.06543 -2.386856,-1.997314 -3.67865,-2.805664c5.784973,-8.187866 1.130463,-30.157837 -13.22821,-56.728882c-18.795868,-34.781982 -60.346497,-74.350952 -63.26973,-65.922363c-2.906281,8.379883 0.361191,22.937988 7.789352,41.157715c-28.206055,-33.682007 -73.313904,-67.458252 -73.269531,-58.442993c0.036377,7.382202 4.675385,18.405884 12.661804,31.879761c-34.614471,-29.45874 -76.962036,-54.514648 -74.329254,-45.633545c1.870758,6.310913 7.033234,14.733154 14.771332,24.709229c-36.724182,-23.584961 -73.448395,-40.531982 -68.804993,-32.18689c2.963928,5.326782 8.277405,11.872314 15.543518,19.384644c-40.060852,-20.796387 -77.91153,-34.416992 -71.160797,-26.019287c7.942596,9.880371 24.384979,23.259277 46.251923,38.623413c-0.409668,-0.178345 -0.818176,-0.354248 -1.229248,-0.532349c-54.562256,-23.641113 -118.78653,-38.619995 -106.376678,-28.475952c17.765289,14.521606 56.223785,34.277222 103.505554,55.316162c-34.931366,-8.2052 -63.32547,-12.973633 -79.579163,-12.231445c-12.411682,0.56665 30.452301,21.907715 78.217377,37.668945c-11.614258,-0.478271 -21.083435,-0.155884 -27.76593,1.156372c-12.659851,2.48584 50.137573,25.990967 104.776947,35.726807c-16.622345,0.644653 -29.492065,2.374023 -37.123993,5.451294c-8.20871,3.309692 28.691223,14.783325 69.921997,21.440796c-12.83374,2.621948 -22.469818,5.841675 -27.82251,9.743042c-7.541809,5.49707 46.621399,15.665771 92.482666,14.98999c-24.873047,6.889648 -42.893433,14.635986 -48.982361,22.986694c-5.372406,7.367798 54.639908,11.782104 96.233505,3.152466c31.195175,-6.472168 52.721756,-16.760986 56.681046,-25.873779zm-102.120361,-48.073242c-2.15625,-0.178955 -4.386261,-0.355957 -6.711609,-0.534058c1.293304,-0.869263 1.987701,-1.884399 2.006592,-3.050171c1.644928,1.316528 3.21048,2.501221 4.705017,3.584229z" stroke-dashoffset="0" stroke-miterlimit="4" stroke-linejoin="round" stroke-linecap="round" stroke-width="0.310194" fill-rule="nonzero" fill="#649537"/>
    <path id="path2926" d="m-183.778397,-1428.070435c-2.489151,-2.356689 -5.671051,-3.026367 -9.465149,-1.732544c-1.560013,0.531982 -2.994843,1.13623 -4.34288,1.86499c-5.779831,-8.190918 -29.708359,-13.518066 -62.290894,-12.756958c-42.651306,0.996582 -99.588745,18.773804 -92.373779,24.703369c7.173126,5.895386 23.105652,9.274048 44.438568,10.747314c-45.477417,9.221191 -98.102325,32.351318 -89.061951,36.07666c7.402832,3.050659 20.370483,3.822632 37.187042,2.854614c-43.925323,16.272217 -86.671478,40.763306 -76.685211,42.296753c7.096191,1.089722 17.678986,0.344238 30.891663,-1.878662c-38.927582,20.464355 -71.212402,43.69873 -60.923523,43.349365c6.567627,-0.223145 15.335358,-1.876465 25.885376,-4.737915c-37.529358,24.381592 -66.955383,49.933716 -55.734375,47.867065c13.202271,-2.431396 33.452484,-10.417236 57.953186,-22.05127c-0.349457,0.26355 -0.695862,0.527344 -1.045776,0.792236c-46.427795,35.161621 -88.218842,81.911865 -72.888641,75.903809c21.945953,-8.60083 57.765076,-32.094482 98.550476,-62.33374c-22.7883,25.402832 -39.409302,46.844971 -45.449371,60.568115c-4.612305,10.479126 34.631775,-15.988525 70.337494,-48.829102c-5.325409,9.38501 -8.954315,17.333984 -10.429779,23.39624c-2.79541,11.484863 46.9328,-30.529541 79.477173,-71.557861c-6.291321,13.986572 -9.931335,25.328857 -10.036774,32.911377c-0.113373,8.155273 26.767334,-17.508179 50.635529,-48.755493c-2.731628,11.685181 -3.530762,20.980957 -1.860229,27.026245c2.353821,8.517822 35.13266,-31.936768 53.594666,-70.065552c-3.484924,23.401489 -3.252853,41.505371 2.562866,50.015015c5.131439,7.508301 34.592468,-40.174683 43.313843,-78.10083c6.54097,-28.44458 5.227707,-50.50293 -2.239548,-57.573242zm-90.724167,64.213257c-1.078979,1.704712 -2.186584,3.471313 -3.335236,5.315918c-0.3302,-1.430176 -1.056335,-2.426758 -2.214966,-2.928711c2.003845,-0.808105 3.842712,-1.605713 5.550201,-2.387207z" stroke-dashoffset="0" stroke-miterlimit="4" stroke-linejoin="round" stroke-linecap="round" stroke-width="0.310194" fill-rule="nonzero" fill="#649537"/>
    <path id="path3061" d="m-126.138283,-1253.338867c-23.896538,47.841431 -66.178398,55.560669 -105.94381,39.18103c-39.765381,-16.379395 -62.030365,-50.685547 -38.13382,-98.526978c23.896545,-47.841431 75.56424,-73.375732 115.329651,-56.996216c39.765419,16.379395 52.644463,68.500732 28.747978,116.342163z" stroke-dashoffset="0" stroke-miterlimit="4" stroke-linejoin="round" stroke-linecap="round" fill-rule="nonzero" fill="url(#linearGradient4588)"/>
    <path d="m-126.138283,-1253.338867c-23.896538,47.841431 -66.178398,55.560669 -105.94381,39.18103c-39.765381,-16.379395 -62.030365,-50.685547 -38.13382,-98.526978c23.896545,-47.841431 75.56424,-73.375732 115.329651,-56.996216c39.765419,16.379395 52.644463,68.500732 28.747978,116.342163z" id="path3101" stroke-dashoffset="0" stroke-miterlimit="4" stroke-linejoin="round" stroke-linecap="round" fill-rule="nonzero" fill="#000000" opacity="0.35"/>
    <path id="path3057" d="m-175.679062,-1331.161499c-38.214722,23.842163 -70.748444,13.238525 -90.565872,-12.954956c-19.817352,-26.193604 -19.450897,-58.1073 18.763763,-81.949341c38.214661,-23.842163 85.313187,-21.933716 105.130539,4.259888c19.81736,26.193726 4.886215,66.802368 -33.32843,90.644409z" stroke-dashoffset="0" stroke-miterlimit="4" stroke-linejoin="round" stroke-linecap="round" fill-rule="nonzero" fill="url(#linearGradient4584)"/>
    <path id="path2928" d="m-65.551773,-1437.336182c0.875,3.167236 3.272732,5.181519 7.274181,5.765991c1.645172,0.240356 3.221191,0.36145 4.789783,0.335449c0.547829,9.715576 18.420498,25.114502 47.132658,39.12207c37.58485,18.336182 96.73781,28.53064 93.709238,20.132813c-3.011108,-8.349243 -15.003258,-18.456299 -32.725819,-29.339722c44.529469,12.465576 102.859554,16.069824 97.042217,8.764404c-4.76358,-5.982056 -15.604034,-12.490601 -30.737076,-19.220703c47.030884,5.643433 97.524826,3.618164 89.689285,-2.209351c-5.56781,-4.141113 -15.16571,-8.257935 -27.853729,-12.275879c44.979156,-0.247314 85.701675,-5.890747 76.575333,-10.21936c-5.825455,-2.763062 -14.342453,-5.274414 -25.066895,-7.539063c45.903503,-4.278564 85.408569,-13.222046 74.535278,-16.479004c-12.79303,-3.831909 -34.739258,-6.013306 -62.368439,-6.939697c0.447372,-0.071533 0.89212,-0.144653 1.340683,-0.217285c59.516586,-9.634766 121.33287,-31.421021 104.739243,-33.104858c-23.754639,-2.410645 -67.688049,1.866943 -119.617157,9.766968c33.658966,-11.802124 59.799652,-22.940918 72.53714,-32.139648c9.726501,-7.024292 -38.804871,-1.705933 -87.742691,10.740112c9.748535,-5.75293 17.239655,-11.022583 21.830643,-15.623169c8.697647,-8.715698 -57.426331,5.384644 -108.088531,26.364502c13.099503,-9.314331 22.452881,-17.526123 26.683929,-24.063599c4.550751,-7.031616 -32.804619,3.154541 -70.592133,19.546021c8.751617,-8.918335 14.520538,-16.63147 16.370117,-22.633667c2.605965,-8.457031 -47.946709,11.919067 -84.796017,36.720825c15.80225,-18.754395 25.484188,-34.581299 25.079098,-44.589844c-0.357418,-8.830688 -51.974758,19.316528 -80.254097,48.327637c-21.20948,21.758179 -32.111458,41.506104 -29.486229,51.008057l-0.000015,0zm113.846424,-14.922485c1.867638,-0.994873 3.793968,-2.030396 5.79858,-3.115234c-0.493893,1.390747 -0.40744,2.58313 0.324768,3.540771c-2.181488,-0.200317 -4.213989,-0.335571 -6.123348,-0.425537z" stroke-dashoffset="0" stroke-miterlimit="4" stroke-linejoin="round" stroke-linecap="round" stroke-width="0.310194" fill-rule="nonzero" fill="#649537"/>
    <path id="path2930" d="m-101.172287,-1473.300781c3.586121,0.240845 6.44516,-1.193237 8.313576,-4.459229c0.768158,-1.342773 1.390121,-2.66333 1.855835,-4.023804c10.328934,2.580566 32.043587,-7.98877 55.709526,-28.340088c30.97923,-26.640137 60.22407,-74.432739 50.49308,-74.460327c-9.67465,-0.02771 -24.00912,7.134766 -40.95587,18.99353c27.02414,-34.471924 49.12085,-83.625732 39.65558,-80.906128c-7.7507,2.226929 -17.96109,9.527466 -29.75212,20.458862c20.67812,-38.771973 34.427231,-82.939209 25.87276,-78.015381c-6.07874,3.498779 -13.39846,10.479492 -21.585819,20.155396c13.87512,-38.85437 20.771179,-75.734497 13.37833,-69.226929c-4.71912,4.154053 -10.02077,10.707397 -15.75812,19.241333c9.95093,-40.917969 13.01468,-77.7854 6.19312,-69.435059c-8.02597,9.824707 -17.20235,28.059204 -26.852632,51.58728c0.065701,-0.408203 0.12907,-0.814697 0.19408,-1.224121c8.629171,-54.336792 5.277462,-114.474365 -1.697128,-100.69812c-9.984421,19.721436 -19.317509,58.94043 -27.375931,106.19104c-1.76173,-32.72583 -5.192646,-58.761963 -10.806767,-72.633301c-4.287117,-10.592407 -13.976845,32.917603 -16.342827,79.0177c-2.951057,-10.211914 -6.106194,-18.325806 -9.473099,-23.72937c-6.378639,-10.236938 -12.415565,51.199341 -6.401978,101.467529c-5.621407,-14.219971 -11.267021,-24.86377 -16.772003,-30.565552c-5.921059,-6.13269 -7.01017,29.271973 -1.747818,66.99939c-6.573418,-10.347168 -12.824333,-17.744263 -18.517982,-21.224731c-8.022369,-4.904053 -2.60553,45.080078 11.743942,84.641113c-14.640839,-19.516113 -28.14444,-32.836182 -38.734894,-35.631836c-9.344147,-2.466797 3.862335,50.877197 25.305145,84.372803c16.082077,25.121704 33.301483,40.725464 44.060013,41.447998zm20.172813,-102.835938c-0.453033,-1.922729 -0.930374,-3.908813 -1.434555,-5.977905c1.298592,0.862793 2.572388,1.162964 3.803581,0.832642c-0.894966,1.817749 -1.674934,3.527344 -2.369026,5.145264z" stroke-dashoffset="0" stroke-miterlimit="4" stroke-linejoin="round" stroke-linecap="round" stroke-width="0.310194" fill-rule="nonzero" fill="#649537"/>
    <path d="m-175.679062,-1331.161499c-38.214722,23.842163 -70.748444,13.238525 -90.565872,-12.954956c-19.817352,-26.193604 -19.450897,-58.1073 18.763763,-81.949341c38.214661,-23.842163 85.313187,-21.933716 105.130539,4.259888c19.81736,26.193726 4.886215,66.802368 -33.32843,90.644409z" id="path3105" stroke-dashoffset="0" stroke-miterlimit="4" stroke-linejoin="round" stroke-linecap="round" fill-rule="nonzero" fill="#000000" opacity="0.283843"/>
    <path d="m-154.80365,-1467.432129c-1.816467,-3.804932 -5.278763,-5.879395 -10.42569,-5.861816c-2.116272,0.007202 -4.118652,0.150757 -6.078201,0.477417c-2.89476,-12.071655 -28.790787,-28.017822 -67.953171,-40.188843c-51.264465,-15.932007 -127.704895,-17.619141 -122.000977,-7.663574c5.670868,9.897705 22.995239,20.314941 47.676697,30.631104c-58.632263,-7.274292 -132.54364,-0.857544 -123.593567,7.206299c7.328857,6.603394 22.392059,12.726929 42.884583,18.323975c-60.216034,1.743408 -123.028534,13.745483 -111.885437,19.579346c7.918152,4.145386 20.880676,7.505249 37.693085,10.161865c-56.306274,8.740479 -106.052002,23.445068 -93.632202,27.158447c7.927795,2.370483 19.171143,3.920898 33.12439,4.748535c-56.548157,13.965332 -104.018311,32.576782 -89.653015,34.620117c16.90155,2.403931 44.897766,1.023682 79.729919,-2.994141c-0.544312,0.173584 -1.085083,0.348511 -1.630615,0.52356c-72.389038,23.228516 -144.897949,62.114868 -123.722046,61.114746c30.314331,-1.431641 84.394165,-15.026367 147.6698,-34.659058c-39.494873,21.097778 -69.719482,39.955444 -83.589722,53.869507c-10.591553,10.625 49.013306,-5.135742 107.507416,-29.904297c-10.908051,9.036133 -19.09729,17.043457 -23.804535,23.668945c-8.917847,12.551636 70.73587,-17.511108 129.451019,-53.296265c-14.297668,14.126953 -24.151733,26.170044 -27.967651,35.155151c-4.104187,9.66394 40.38974,-10.101563 84.014832,-37.724121c-8.939331,12.815552 -14.415131,23.562134 -15.368469,31.430054c-1.343323,11.085815 57.371765,-23.922363 97.909653,-61.907715c-15.538773,26.462524 -24.073654,48.109619 -21.291245,60.575195c2.455017,10.998657 60.738037,-33.947021 89.580307,-75.600586c21.631699,-31.240112 30.804031,-58.029297 25.354843,-69.443848zm-139.266724,40.03772c-2.114258,1.59668 -4.292725,3.255371 -6.558044,4.990356c0.302795,-1.835083 -0.07663,-3.31311 -1.211761,-4.375854c2.779114,-0.157837 5.356659,-0.369385 7.769806,-0.614502z" id="path2940" stroke-dashoffset="0" stroke-miterlimit="4" stroke-linejoin="round" stroke-linecap="round" stroke-width="0.393935" fill-rule="nonzero" fill="#96c769"/>
    <path id="path3046" d="m-53.861099,-1300.932983c-9.893051,51.759155 -48.682793,68.877808 -91.704514,62.096802c-43.021667,-6.781006 -74.06427,-34.906616 -64.171234,-86.665649c9.893051,-51.759033 52.838379,-88.262939 95.860039,-81.481812c43.021729,6.781006 69.908787,54.291748 60.015697,106.050659l0.000011,0z" stroke-dashoffset="0" stroke-miterlimit="4" stroke-linejoin="round" stroke-linecap="round" fill-rule="nonzero" fill="url(#linearGradient4577)"/>
    <path d="m-100.489662,-1470.156982c-3.934685,2.10498 -5.775848,5.480347 -5.123489,10.116699c0.26825,1.90625 0.671349,3.693237 1.269302,5.418945c-12.836212,4.093628 -27.07769,29.392578 -35.561302,66.182861c-11.105347,48.15918 -3.546478,117.254883 6.631638,110.890015c10.119217,-6.328125 19.372627,-23.222168 27.610451,-46.734131c-0.737366,53.734131 15.366562,119.553833 23.078285,110.496216c6.314751,-7.417114 11.154091,-21.745239 14.749977,-40.901611c9.312229,54.052246 30.154942,109.182495 35.159721,98.422852c3.556419,-7.645752 5.63357,-19.740845 6.46879,-35.218994c16.477969,49.668091 38.666729,92.690186 41.197279,81.040649c1.615301,-7.436035 1.92679,-17.759277 1.11484,-30.435791c22.217779,49.243408 48.396238,89.734253 48.862059,76.536865c0.548225,-15.527344 -4.403828,-40.587769 -13.079128,-71.484375c0.256561,0.469238 0.514351,0.935059 0.772739,1.405029c34.289299,62.379883 85.704926,122.94165 82.007233,103.980957c-5.293488,-27.143066 -26.802444,-74.20752 -56.041214,-128.81665c27.91465,32.997559 52.24086,57.91626 69.152847,68.70459c12.914368,8.238281 -11.641479,-43.539063 -45.904701,-93.207275c11.216827,8.718994 20.975006,15.114258 28.794472,18.541382c14.813995,6.492798 -27.837654,-61.593384 -74.167484,-110.105591c17.197208,11.147339 31.570438,18.546509 41.859097,20.880127c11.066132,2.51001 -16.007599,-35.156738 -51.560818,-71.073853c15.10508,6.479858 27.522892,10.092651 36.23856,9.984009c12.280243,-0.153076 -33.200348,-48.760986 -79.6987,-80.621216c30.830688,10.748535 55.537349,15.777466 68.818023,11.736572c11.717705,-3.56543 -44.569824,-50.561401 -93.638344,-71.430542c-36.801388,-15.651733 -67.206009,-20.622681 -79.010132,-14.307739zm60.885704,120.582275c2.004837,1.708984 4.085487,3.468262 6.260269,5.296387c-2.042732,-0.047241 -3.611252,0.476563 -4.63306,1.630249c-0.514282,-2.485107 -1.062531,-4.781982 -1.627209,-6.926636z" id="path2942" stroke-dashoffset="0" stroke-miterlimit="4" stroke-linejoin="round" stroke-linecap="round" stroke-width="0.393935" fill-rule="nonzero" fill="#96c769"/>
    <path d="m-62.024509,-1483.489502c3.916569,2.132568 8.061569,1.988037 12.23447,-0.748047c1.71571,-1.125 3.251568,-2.300659 4.635159,-3.602295c10.094482,8.282715 41.372411,7.551758 81.014191,-3.263916c51.891956,-14.157959 115.115757,-53.209717 104.094639,-58.286621c-10.957352,-5.047485 -31.721466,-4.354614 -58.401558,0.311035c52.329475,-25.092529 108.300453,-69.394897 95.853416,-71.217407c-10.19249,-1.492432 -26.365021,1.495117 -46.61348,7.782104c47.83429,-33.260986 91.200699,-76.234619 78.400818,-75.084473c-9.095428,0.817261 -21.78772,4.940796 -37.158859,11.671875c40.168777,-36.88147 71.179581,-75.14209 58.701584,-71.593018c-7.964844,2.265381 -18.099396,6.950562 -29.973373,13.656616c37.014908,-41.25708 63.670425,-81.490356 50.681931,-75.554688c-15.281601,6.983643 -37.155884,22.910645 -62.895981,44.596802c0.331131,-0.428833 0.658524,-0.857056 0.989731,-1.287842c43.952393,-57.164429 77.961273,-127.121094 61.387756,-115.109863c-23.725739,17.194946 -58.971619,56.845093 -97.821289,106.26709c18.577682,-38.037109 31.055634,-69.350708 33.4086,-87.99707c1.796722,-14.238525 -36.551666,30.094482 -68.220612,81.162842c3.073059,-13.114258 4.595459,-23.954468 4.173515,-31.829834c-0.799438,-14.9198 -46.275047,51.64209 -71.058949,111.783325c2.563869,-19.045288 2.85181,-34.046753 0.192051,-43.369019c-2.86087,-10.026733 -26.356821,29.571045 -44.107851,75.096558c-0.95111,-15.145874 -3.39118,-26.777832 -7.66162,-33.678223c-6.01709,-9.722534 -31.29927,49.786987 -39.895252,102.104248c-4.33762,-29.729736 -11.280987,-51.841064 -21.536819,-60.503418c-9.048939,-7.643066 -27.607227,59.716553 -24.342922,108.830933c2.448196,36.835815 12.17083,63.464478 23.920712,69.862305l-0.000008,0zm87.540739,-106.195801c0.694981,-2.416016 1.40222,-4.916382 2.13117,-7.524902c0.93066,1.651978 2.18692,2.652954 3.791229,2.916504c-2.15799,1.598022 -4.117828,3.133057 -5.9224,4.608398z" id="path2944" stroke-dashoffset="0" stroke-miterlimit="4" stroke-linejoin="round" stroke-linecap="round" stroke-width="0.393935" fill-rule="nonzero" fill="#96c769"/>
    <path d="m-134.706421,-1496.992554c3.864014,-2.210327 5.593811,-5.633911 4.789948,-10.250488c-0.330505,-1.898193 -0.792023,-3.673462 -1.446198,-5.382324c12.696449,-4.438477 26.103004,-30.110962 33.377998,-67.114014c9.523193,-48.437866 -0.295258,-117.298828 -10.260414,-110.661865c-9.907555,6.598511 -18.603546,23.735107 -26.067642,47.459106c-1.022842,-53.730347 -19.27536,-119.085938 -26.686905,-109.823975c-6.069122,7.584351 -10.437042,22.036987 -13.403992,41.28186c-11.078339,-53.776855 -33.717453,-108.319946 -38.36763,-97.429688c-3.304367,7.738403 -4.984482,19.884277 -5.312424,35.378174c-18.097366,-49.201172 -41.685394,-91.60498 -43.833221,-79.892334c-1.371063,7.476563 -1.344299,17.803589 -0.117554,30.452515c-23.820709,-48.621582 -51.31366,-88.387451 -51.347168,-75.18335c-0.039398,15.5354 5.731262,40.450928 15.414612,71.099609c-0.271881,-0.462158 -0.544739,-0.920898 -0.81842,-1.383667c-36.317139,-61.426147 -89.693542,-120.57251 -85.376495,-101.720093c6.180145,26.988159 29.220947,73.450928 60.235321,127.246216c-28.982971,-32.229126 -54.114563,-56.479858 -71.372467,-66.806763c-13.178375,-7.88562 13.062317,43.205566 48.937073,91.926392c-11.497345,-8.412109 -21.460724,-14.540894 -29.388947,-17.755493c-15.02005,-6.089844 29.842621,60.814209 77.740814,108.053711c-17.55481,-10.677856 -32.164001,-17.685547 -42.524445,-19.740234c-11.143463,-2.210083 17.151825,34.70874 53.865753,69.649902c-15.310608,-6.06897 -27.841339,-9.344971 -36.54953,-9.000977c-12.269836,0.484619 34.782623,47.842651 82.303879,78.433105c-31.169022,-9.911011 -56.029556,-14.270508 -69.171951,-9.872803c-11.595795,3.880249 46.206024,49.335327 95.936325,68.869995c37.297653,14.650879 67.851639,18.798462 79.44368,12.16748zm-64.807922,-118.884521c-2.059906,-1.654053 -4.197281,-3.356323 -6.43103,-5.124878c2.043427,-0.008057 3.594193,-0.573975 4.577698,-1.754639c0.59549,2.470093 1.218735,4.751099 1.853333,6.879517z" id="path2946" stroke-dashoffset="0" stroke-miterlimit="4" stroke-linejoin="round" stroke-linecap="round" stroke-width="0.393935" fill-rule="nonzero" fill="#96c769"/>
   </g>
   <path id="path3317" d="m177.228317,214.307648c-6.834061,1.811737 -12.859039,-6.019257 -19.59314,-2.674774c-4.658463,1.844421 -10.683609,5.840515 -15.60495,2.674774" stroke-miterlimit="4" stroke="#fffeff" fill-rule="evenodd" fill-opacity="0.75" fill="none" opacity="0.577465"/>
   <path id="path3319" d="m229.35791,218.196716c6.834076,1.811737 12.859039,-6.019257 19.59314,-2.674744c4.658447,1.844421 10.683624,5.840515 15.60495,2.674744" stroke-miterlimit="4" stroke="#fffeff" fill-rule="evenodd" fill-opacity="0.75" fill="none" opacity="0.577465"/>
   <path d="m408.609467,219.257385c6.834076,1.811737 12.85907,-6.019257 19.59314,-2.674774c4.658478,1.844452 10.683624,5.840515 15.60495,2.674774" id="path3321" stroke-miterlimit="4" stroke="#fffeff" fill-rule="evenodd" fill-opacity="0.75" fill="none" opacity="0.577465"/>
   <path id="path3323" d="m465.885132,215.01474c6.834076,1.811737 12.85907,-6.019226 19.59314,-2.674744c4.658447,1.844421 10.683594,5.840485 15.604919,2.674744" stroke-miterlimit="4" stroke="#fffeff" fill-rule="evenodd" fill-opacity="0.75" fill="none" opacity="0.577465"/>
   <path id="path3325" d="m653.609497,223.257385c6.834045,1.811737 12.859009,-6.019257 19.59314,-2.674774c4.658447,1.844452 10.683594,5.840515 15.604919,2.674774" stroke-miterlimit="4" stroke="#fffeff" fill-rule="evenodd" fill-opacity="0.75" fill="none" opacity="0.577465"/>
   <path d="m710.885132,219.01474c6.834045,1.811737 12.85907,-6.019257 19.59314,-2.674744c4.658447,1.844421 10.683594,5.840485 15.604919,2.674744" id="path3327" stroke-miterlimit="4" stroke="#fffeff" fill-rule="evenodd" fill-opacity="0.75" fill="none" opacity="0.577465"/>
   <path d="m816.559204,218.426544c6.146484,1.629456 11.565369,-5.413696 17.621948,-2.40567c4.189819,1.658875 9.608826,5.25293 14.035034,2.40567" id="path3329" stroke-miterlimit="4" stroke-width="0.899396" stroke="#fffeff" fill-rule="evenodd" fill-opacity="0.75" fill="none" opacity="0.577465"/>
   <path id="path3331" d="m868.072632,214.610718c6.146545,1.629486 11.56543,-5.413666 17.622009,-2.40567c4.189819,1.658875 9.608826,5.25293 14.035034,2.40567" stroke-miterlimit="4" stroke-width="0.899396" stroke="#fffeff" fill-rule="evenodd" fill-opacity="0.75" fill="none" opacity="0.577465"/>
   <path id="path3333" d="m153.783432,203.615417c4.908447,1.301239 9.235779,-4.323212 14.072418,-1.921082c3.345856,1.324707 7.673309,4.194824 11.207977,1.921082" stroke-miterlimit="4" stroke-width="0.718232" stroke="#fffeff" fill-rule="evenodd" fill-opacity="0.75" fill="none" opacity="0.577465"/>
   <path d="m110.217033,204.670471c4.90844,1.30127 9.235764,-4.323212 14.072403,-1.921082c3.345863,1.324738 7.673332,4.194855 11.207985,1.921082" id="path3335" stroke-miterlimit="4" stroke-width="0.718232" stroke="#fffeff" fill-rule="evenodd" fill-opacity="0.75" fill="none" opacity="0.577465"/>
   <path id="path3337" d="m47.21703,208.670471c4.90844,1.30127 9.235779,-4.323212 14.072422,-1.921082c3.345848,1.324738 7.673309,4.194855 11.20797,1.921082" stroke-miterlimit="4" stroke-width="0.718232" stroke="#fffeff" fill-rule="evenodd" fill-opacity="0.75" fill="none" opacity="0.577465"/>
   <path d="m407.217041,200.170471c4.908417,1.30127 9.235779,-4.323212 14.072418,-1.921082c3.345856,1.324738 7.673309,4.194855 11.207977,1.921082" id="path3339" stroke-miterlimit="4" stroke-width="0.718232" stroke="#fffeff" fill-rule="evenodd" fill-opacity="0.75" fill="none" opacity="0.577465"/>
   <path id="path3341" d="m345.217041,206.170471c4.908417,1.30127 9.235779,-4.323212 14.072418,-1.921082c3.345856,1.324738 7.673309,4.194855 11.207977,1.921082" stroke-miterlimit="4" stroke-width="0.718232" stroke="#fffeff" fill-rule="evenodd" fill-opacity="0.75" fill="none" opacity="0.577465"/>
   <path d="m508.717041,203.170471c4.908447,1.30127 9.235779,-4.323212 14.072388,-1.921082c3.345886,1.324738 7.67334,4.194855 11.208008,1.921082" id="path3343" stroke-miterlimit="4" stroke-width="0.718232" stroke="#fffeff" fill-rule="evenodd" fill-opacity="0.75" fill="none" opacity="0.577465"/>
   <path id="path3345" d="m561.717041,211.670471c4.908447,1.301239 9.235779,-4.323212 14.072388,-1.921082c3.345886,1.324738 7.67334,4.194824 11.208008,1.921082" stroke-miterlimit="4" stroke-width="0.718232" stroke="#fffeff" fill-rule="evenodd" fill-opacity="0.75" fill="none" opacity="0.577465"/>
   <path d="m639.217041,207.670471c4.908447,1.30127 9.235779,-4.323212 14.072388,-1.921082c3.345886,1.324738 7.67334,4.194855 11.208008,1.921082" id="path3347" stroke-miterlimit="4" stroke-width="0.718232" stroke="#fffeff" fill-rule="evenodd" fill-opacity="0.75" fill="none" opacity="0.577465"/>
   <path id="path3349" d="m694.717041,208.170471c4.908447,1.30127 9.235779,-4.323212 14.072388,-1.921082c3.345886,1.324738 7.67334,4.194855 11.208008,1.921082" stroke-miterlimit="4" stroke-width="0.718232" stroke="#fffeff" fill-rule="evenodd" fill-opacity="0.75" fill="none" opacity="0.577465"/>
   <path d="m773.717041,205.170471c4.908447,1.30127 9.235779,-4.323212 14.072388,-1.921082c3.345886,1.324738 7.67334,4.194855 11.208008,1.921082" id="path3351" stroke-miterlimit="4" stroke-width="0.718232" stroke="#fffeff" fill-rule="evenodd" fill-opacity="0.75" fill="none" opacity="0.577465"/>
   <path id="path3353" d="m309.141052,199.060303c3.870056,1.02597 7.281952,-3.40863 11.095398,-1.514679c2.638062,1.044464 6.050049,3.307404 8.836945,1.514679" stroke-miterlimit="4" stroke-width="0.56629" stroke="#fffeff" fill-rule="evenodd" fill-opacity="0.75" fill="none" opacity="0.577465"/>
   <path d="m230.141052,200.560303c3.870056,1.02597 7.281952,-3.40863 11.095398,-1.514679c2.638062,1.044464 6.050049,3.307404 8.836945,1.514679" id="path3355" stroke-miterlimit="4" stroke-width="0.56629" stroke="#fffeff" fill-rule="evenodd" fill-opacity="0.75" fill="none" opacity="0.577465"/>
   <path id="path3357" d="m63.64106,198.060303c3.870064,1.02597 7.281952,-3.40863 11.095398,-1.514679c2.638039,1.044464 6.050034,3.307404 8.836929,1.514679" stroke-miterlimit="4" stroke-width="0.56629" stroke="#fffeff" fill-rule="evenodd" fill-opacity="0.75" fill="none" opacity="0.577465"/>
   <path d="m447.578888,197.269318c3.020508,0.80072 5.68338,-2.660339 8.659668,-1.18219c2.058929,0.815216 4.721893,2.58136 6.897003,1.18219" id="path3359" stroke-miterlimit="4" stroke-width="0.441974" stroke="#fffeff" fill-rule="evenodd" fill-opacity="0.75" fill="none" opacity="0.577465"/>
   <path id="path3361" d="m549.078918,197.269318c3.020447,0.80072 5.68335,-2.660339 8.659668,-1.18219c2.058899,0.815216 4.721863,2.58136 6.896973,1.18219" stroke-miterlimit="4" stroke-width="0.441974" stroke="#fffeff" fill-rule="evenodd" fill-opacity="0.75" fill="none" opacity="0.577465"/>
   <path d="m616.078918,196.269318c3.020447,0.80072 5.68335,-2.660339 8.659668,-1.18219c2.058899,0.815216 4.721863,2.58136 6.896973,1.18219" id="path3363" stroke-miterlimit="4" stroke-width="0.441974" stroke="#fffeff" fill-rule="evenodd" fill-opacity="0.75" fill="none" opacity="0.577465"/>
  </g>
 </g>
</svg>